<?xml version="1.0" encoding="utf-8" standalone="no"?>
<!DOCTYPE svg PUBLIC "-//W3C//DTD SVG 1.1//EN"
  "http://www.w3.org/Graphics/SVG/1.1/DTD/svg11.dtd">
<svg xmlns:xlink="http://www.w3.org/1999/xlink" width="1072.46125pt" height="313.26025pt" viewBox="0 0 1072.46125 313.26025" xmlns="http://www.w3.org/2000/svg" version="1.1">
 <metadata>
  <rdf:RDF xmlns:dc="http://purl.org/dc/elements/1.1/" xmlns:cc="http://creativecommons.org/ns#" xmlns:rdf="http://www.w3.org/1999/02/22-rdf-syntax-ns#">
   <cc:Work>
    <dc:type rdf:resource="http://purl.org/dc/dcmitype/StillImage"/>
    <dc:date>2026-07-31T16:39:38.533371</dc:date>
    <dc:format>image/svg+xml</dc:format>
    <dc:creator>
     <cc:Agent>
      <dc:title>Matplotlib v3.10.6, https://matplotlib.org/</dc:title>
     </cc:Agent>
    </dc:creator>
   </cc:Work>
  </rdf:RDF>
 </metadata>
 <defs>
  <style type="text/css">*{stroke-linejoin: round; stroke-linecap: butt}</style>
 </defs>
 <g id="figure_1">
  <g id="patch_1">
   <path d="M 0 313.26025 
L 1072.46125 313.26025 
L 1072.46125 0 
L 0 0 
z
" style="fill: #ffffff"/>
  </g>
  <g id="axes_1">
   <g id="patch_2">
    <path d="M 43.78125 275.704 
L 361.847917 275.704 
L 361.847917 50.064 
L 43.78125 50.064 
z
" style="fill: #ffffff"/>
   </g>
   <g id="matplotlib.axis_1">
    <g id="xtick_1">
     <g id="line2d_1">
      <path d="M 58.238826 275.704 
L 58.238826 50.064 
" clip-path="url(#pe073d2bcc5)" style="fill: none; stroke: #b0b0b0; stroke-opacity: 0.25; stroke-width: 0.8; stroke-linecap: square"/>
     </g>
     <g id="line2d_2">
      <defs>
       <path id="mc9a65fa7d0" d="M 0 0 
L 0 3.5 
" style="stroke: #000000; stroke-width: 0.8"/>
      </defs>
      <g>
       <use xlink:href="#mc9a65fa7d0" x="58.238826" y="275.704" style="stroke: #000000; stroke-width: 0.8"/>
      </g>
     </g>
     <g id="text_1">
      <!-- 1 -->
      <g transform="translate(55.057576 290.302437) scale(0.1 -0.1)">
       <defs>
        <path id="DejaVuSans-31" d="M 794 531 
L 1825 531 
L 1825 4091 
L 703 3866 
L 703 4441 
L 1819 4666 
L 2450 4666 
L 2450 531 
L 3481 531 
L 3481 0 
L 794 0 
L 794 531 
z
" transform="scale(0.015625)"/>
       </defs>
       <use xlink:href="#DejaVuSans-31"/>
      </g>
     </g>
    </g>
    <g id="xtick_2">
     <g id="line2d_3">
      <path d="M 116.069129 275.704 
L 116.069129 50.064 
" clip-path="url(#pe073d2bcc5)" style="fill: none; stroke: #b0b0b0; stroke-opacity: 0.25; stroke-width: 0.8; stroke-linecap: square"/>
     </g>
     <g id="line2d_4">
      <g>
       <use xlink:href="#mc9a65fa7d0" x="116.069129" y="275.704" style="stroke: #000000; stroke-width: 0.8"/>
      </g>
     </g>
     <g id="text_2">
      <!-- 2 -->
      <g transform="translate(112.887879 290.302437) scale(0.1 -0.1)">
       <defs>
        <path id="DejaVuSans-32" d="M 1228 531 
L 3431 531 
L 3431 0 
L 469 0 
L 469 531 
Q 828 903 1448 1529 
Q 2069 2156 2228 2338 
Q 2531 2678 2651 2914 
Q 2772 3150 2772 3378 
Q 2772 3750 2511 3984 
Q 2250 4219 1831 4219 
Q 1534 4219 1204 4116 
Q 875 4013 500 3803 
L 500 4441 
Q 881 4594 1212 4672 
Q 1544 4750 1819 4750 
Q 2544 4750 2975 4387 
Q 3406 4025 3406 3419 
Q 3406 3131 3298 2873 
Q 3191 2616 2906 2266 
Q 2828 2175 2409 1742 
Q 1991 1309 1228 531 
z
" transform="scale(0.015625)"/>
       </defs>
       <use xlink:href="#DejaVuSans-32"/>
      </g>
     </g>
    </g>
    <g id="xtick_3">
     <g id="line2d_5">
      <path d="M 173.899432 275.704 
L 173.899432 50.064 
" clip-path="url(#pe073d2bcc5)" style="fill: none; stroke: #b0b0b0; stroke-opacity: 0.25; stroke-width: 0.8; stroke-linecap: square"/>
     </g>
     <g id="line2d_6">
      <g>
       <use xlink:href="#mc9a65fa7d0" x="173.899432" y="275.704" style="stroke: #000000; stroke-width: 0.8"/>
      </g>
     </g>
     <g id="text_3">
      <!-- 3 -->
      <g transform="translate(170.718182 290.302437) scale(0.1 -0.1)">
       <defs>
        <path id="DejaVuSans-33" d="M 2597 2516 
Q 3050 2419 3304 2112 
Q 3559 1806 3559 1356 
Q 3559 666 3084 287 
Q 2609 -91 1734 -91 
Q 1441 -91 1130 -33 
Q 819 25 488 141 
L 488 750 
Q 750 597 1062 519 
Q 1375 441 1716 441 
Q 2309 441 2620 675 
Q 2931 909 2931 1356 
Q 2931 1769 2642 2001 
Q 2353 2234 1838 2234 
L 1294 2234 
L 1294 2753 
L 1863 2753 
Q 2328 2753 2575 2939 
Q 2822 3125 2822 3475 
Q 2822 3834 2567 4026 
Q 2313 4219 1838 4219 
Q 1578 4219 1281 4162 
Q 984 4106 628 3988 
L 628 4550 
Q 988 4650 1302 4700 
Q 1616 4750 1894 4750 
Q 2613 4750 3031 4423 
Q 3450 4097 3450 3541 
Q 3450 3153 3228 2886 
Q 3006 2619 2597 2516 
z
" transform="scale(0.015625)"/>
       </defs>
       <use xlink:href="#DejaVuSans-33"/>
      </g>
     </g>
    </g>
    <g id="xtick_4">
     <g id="line2d_7">
      <path d="M 231.729735 275.704 
L 231.729735 50.064 
" clip-path="url(#pe073d2bcc5)" style="fill: none; stroke: #b0b0b0; stroke-opacity: 0.25; stroke-width: 0.8; stroke-linecap: square"/>
     </g>
     <g id="line2d_8">
      <g>
       <use xlink:href="#mc9a65fa7d0" x="231.729735" y="275.704" style="stroke: #000000; stroke-width: 0.8"/>
      </g>
     </g>
     <g id="text_4">
      <!-- 4 -->
      <g transform="translate(228.548485 290.302437) scale(0.1 -0.1)">
       <defs>
        <path id="DejaVuSans-34" d="M 2419 4116 
L 825 1625 
L 2419 1625 
L 2419 4116 
z
M 2253 4666 
L 3047 4666 
L 3047 1625 
L 3713 1625 
L 3713 1100 
L 3047 1100 
L 3047 0 
L 2419 0 
L 2419 1100 
L 313 1100 
L 313 1709 
L 2253 4666 
z
" transform="scale(0.015625)"/>
       </defs>
       <use xlink:href="#DejaVuSans-34"/>
      </g>
     </g>
    </g>
    <g id="xtick_5">
     <g id="line2d_9">
      <path d="M 289.560038 275.704 
L 289.560038 50.064 
" clip-path="url(#pe073d2bcc5)" style="fill: none; stroke: #b0b0b0; stroke-opacity: 0.25; stroke-width: 0.8; stroke-linecap: square"/>
     </g>
     <g id="line2d_10">
      <g>
       <use xlink:href="#mc9a65fa7d0" x="289.560038" y="275.704" style="stroke: #000000; stroke-width: 0.8"/>
      </g>
     </g>
     <g id="text_5">
      <!-- 5 -->
      <g transform="translate(286.378788 290.302437) scale(0.1 -0.1)">
       <defs>
        <path id="DejaVuSans-35" d="M 691 4666 
L 3169 4666 
L 3169 4134 
L 1269 4134 
L 1269 2991 
Q 1406 3038 1543 3061 
Q 1681 3084 1819 3084 
Q 2600 3084 3056 2656 
Q 3513 2228 3513 1497 
Q 3513 744 3044 326 
Q 2575 -91 1722 -91 
Q 1428 -91 1123 -41 
Q 819 9 494 109 
L 494 744 
Q 775 591 1075 516 
Q 1375 441 1709 441 
Q 2250 441 2565 725 
Q 2881 1009 2881 1497 
Q 2881 1984 2565 2268 
Q 2250 2553 1709 2553 
Q 1456 2553 1204 2497 
Q 953 2441 691 2322 
L 691 4666 
z
" transform="scale(0.015625)"/>
       </defs>
       <use xlink:href="#DejaVuSans-35"/>
      </g>
     </g>
    </g>
    <g id="xtick_6">
     <g id="line2d_11">
      <path d="M 347.390341 275.704 
L 347.390341 50.064 
" clip-path="url(#pe073d2bcc5)" style="fill: none; stroke: #b0b0b0; stroke-opacity: 0.25; stroke-width: 0.8; stroke-linecap: square"/>
     </g>
     <g id="line2d_12">
      <g>
       <use xlink:href="#mc9a65fa7d0" x="347.390341" y="275.704" style="stroke: #000000; stroke-width: 0.8"/>
      </g>
     </g>
     <g id="text_6">
      <!-- 6 -->
      <g transform="translate(344.209091 290.302437) scale(0.1 -0.1)">
       <defs>
        <path id="DejaVuSans-36" d="M 2113 2584 
Q 1688 2584 1439 2293 
Q 1191 2003 1191 1497 
Q 1191 994 1439 701 
Q 1688 409 2113 409 
Q 2538 409 2786 701 
Q 3034 994 3034 1497 
Q 3034 2003 2786 2293 
Q 2538 2584 2113 2584 
z
M 3366 4563 
L 3366 3988 
Q 3128 4100 2886 4159 
Q 2644 4219 2406 4219 
Q 1781 4219 1451 3797 
Q 1122 3375 1075 2522 
Q 1259 2794 1537 2939 
Q 1816 3084 2150 3084 
Q 2853 3084 3261 2657 
Q 3669 2231 3669 1497 
Q 3669 778 3244 343 
Q 2819 -91 2113 -91 
Q 1303 -91 875 529 
Q 447 1150 447 2328 
Q 447 3434 972 4092 
Q 1497 4750 2381 4750 
Q 2619 4750 2861 4703 
Q 3103 4656 3366 4563 
z
" transform="scale(0.015625)"/>
       </defs>
       <use xlink:href="#DejaVuSans-36"/>
      </g>
     </g>
    </g>
    <g id="text_7">
     <!-- reasoning depth k -->
     <g transform="translate(157.538802 303.980562) scale(0.1 -0.1)">
      <defs>
       <path id="DejaVuSans-72" d="M 2631 2963 
Q 2534 3019 2420 3045 
Q 2306 3072 2169 3072 
Q 1681 3072 1420 2755 
Q 1159 2438 1159 1844 
L 1159 0 
L 581 0 
L 581 3500 
L 1159 3500 
L 1159 2956 
Q 1341 3275 1631 3429 
Q 1922 3584 2338 3584 
Q 2397 3584 2469 3576 
Q 2541 3569 2628 3553 
L 2631 2963 
z
" transform="scale(0.015625)"/>
       <path id="DejaVuSans-65" d="M 3597 1894 
L 3597 1613 
L 953 1613 
Q 991 1019 1311 708 
Q 1631 397 2203 397 
Q 2534 397 2845 478 
Q 3156 559 3463 722 
L 3463 178 
Q 3153 47 2828 -22 
Q 2503 -91 2169 -91 
Q 1331 -91 842 396 
Q 353 884 353 1716 
Q 353 2575 817 3079 
Q 1281 3584 2069 3584 
Q 2775 3584 3186 3129 
Q 3597 2675 3597 1894 
z
M 3022 2063 
Q 3016 2534 2758 2815 
Q 2500 3097 2075 3097 
Q 1594 3097 1305 2825 
Q 1016 2553 972 2059 
L 3022 2063 
z
" transform="scale(0.015625)"/>
       <path id="DejaVuSans-61" d="M 2194 1759 
Q 1497 1759 1228 1600 
Q 959 1441 959 1056 
Q 959 750 1161 570 
Q 1363 391 1709 391 
Q 2188 391 2477 730 
Q 2766 1069 2766 1631 
L 2766 1759 
L 2194 1759 
z
M 3341 1997 
L 3341 0 
L 2766 0 
L 2766 531 
Q 2569 213 2275 61 
Q 1981 -91 1556 -91 
Q 1019 -91 701 211 
Q 384 513 384 1019 
Q 384 1609 779 1909 
Q 1175 2209 1959 2209 
L 2766 2209 
L 2766 2266 
Q 2766 2663 2505 2880 
Q 2244 3097 1772 3097 
Q 1472 3097 1187 3025 
Q 903 2953 641 2809 
L 641 3341 
Q 956 3463 1253 3523 
Q 1550 3584 1831 3584 
Q 2591 3584 2966 3190 
Q 3341 2797 3341 1997 
z
" transform="scale(0.015625)"/>
       <path id="DejaVuSans-73" d="M 2834 3397 
L 2834 2853 
Q 2591 2978 2328 3040 
Q 2066 3103 1784 3103 
Q 1356 3103 1142 2972 
Q 928 2841 928 2578 
Q 928 2378 1081 2264 
Q 1234 2150 1697 2047 
L 1894 2003 
Q 2506 1872 2764 1633 
Q 3022 1394 3022 966 
Q 3022 478 2636 193 
Q 2250 -91 1575 -91 
Q 1294 -91 989 -36 
Q 684 19 347 128 
L 347 722 
Q 666 556 975 473 
Q 1284 391 1588 391 
Q 1994 391 2212 530 
Q 2431 669 2431 922 
Q 2431 1156 2273 1281 
Q 2116 1406 1581 1522 
L 1381 1569 
Q 847 1681 609 1914 
Q 372 2147 372 2553 
Q 372 3047 722 3315 
Q 1072 3584 1716 3584 
Q 2034 3584 2315 3537 
Q 2597 3491 2834 3397 
z
" transform="scale(0.015625)"/>
       <path id="DejaVuSans-6f" d="M 1959 3097 
Q 1497 3097 1228 2736 
Q 959 2375 959 1747 
Q 959 1119 1226 758 
Q 1494 397 1959 397 
Q 2419 397 2687 759 
Q 2956 1122 2956 1747 
Q 2956 2369 2687 2733 
Q 2419 3097 1959 3097 
z
M 1959 3584 
Q 2709 3584 3137 3096 
Q 3566 2609 3566 1747 
Q 3566 888 3137 398 
Q 2709 -91 1959 -91 
Q 1206 -91 779 398 
Q 353 888 353 1747 
Q 353 2609 779 3096 
Q 1206 3584 1959 3584 
z
" transform="scale(0.015625)"/>
       <path id="DejaVuSans-6e" d="M 3513 2113 
L 3513 0 
L 2938 0 
L 2938 2094 
Q 2938 2591 2744 2837 
Q 2550 3084 2163 3084 
Q 1697 3084 1428 2787 
Q 1159 2491 1159 1978 
L 1159 0 
L 581 0 
L 581 3500 
L 1159 3500 
L 1159 2956 
Q 1366 3272 1645 3428 
Q 1925 3584 2291 3584 
Q 2894 3584 3203 3211 
Q 3513 2838 3513 2113 
z
" transform="scale(0.015625)"/>
       <path id="DejaVuSans-69" d="M 603 3500 
L 1178 3500 
L 1178 0 
L 603 0 
L 603 3500 
z
M 603 4863 
L 1178 4863 
L 1178 4134 
L 603 4134 
L 603 4863 
z
" transform="scale(0.015625)"/>
       <path id="DejaVuSans-67" d="M 2906 1791 
Q 2906 2416 2648 2759 
Q 2391 3103 1925 3103 
Q 1463 3103 1205 2759 
Q 947 2416 947 1791 
Q 947 1169 1205 825 
Q 1463 481 1925 481 
Q 2391 481 2648 825 
Q 2906 1169 2906 1791 
z
M 3481 434 
Q 3481 -459 3084 -895 
Q 2688 -1331 1869 -1331 
Q 1566 -1331 1297 -1286 
Q 1028 -1241 775 -1147 
L 775 -588 
Q 1028 -725 1275 -790 
Q 1522 -856 1778 -856 
Q 2344 -856 2625 -561 
Q 2906 -266 2906 331 
L 2906 616 
Q 2728 306 2450 153 
Q 2172 0 1784 0 
Q 1141 0 747 490 
Q 353 981 353 1791 
Q 353 2603 747 3093 
Q 1141 3584 1784 3584 
Q 2172 3584 2450 3431 
Q 2728 3278 2906 2969 
L 2906 3500 
L 3481 3500 
L 3481 434 
z
" transform="scale(0.015625)"/>
       <path id="DejaVuSans-20" transform="scale(0.015625)"/>
       <path id="DejaVuSans-64" d="M 2906 2969 
L 2906 4863 
L 3481 4863 
L 3481 0 
L 2906 0 
L 2906 525 
Q 2725 213 2448 61 
Q 2172 -91 1784 -91 
Q 1150 -91 751 415 
Q 353 922 353 1747 
Q 353 2572 751 3078 
Q 1150 3584 1784 3584 
Q 2172 3584 2448 3432 
Q 2725 3281 2906 2969 
z
M 947 1747 
Q 947 1113 1208 752 
Q 1469 391 1925 391 
Q 2381 391 2643 752 
Q 2906 1113 2906 1747 
Q 2906 2381 2643 2742 
Q 2381 3103 1925 3103 
Q 1469 3103 1208 2742 
Q 947 2381 947 1747 
z
" transform="scale(0.015625)"/>
       <path id="DejaVuSans-70" d="M 1159 525 
L 1159 -1331 
L 581 -1331 
L 581 3500 
L 1159 3500 
L 1159 2969 
Q 1341 3281 1617 3432 
Q 1894 3584 2278 3584 
Q 2916 3584 3314 3078 
Q 3713 2572 3713 1747 
Q 3713 922 3314 415 
Q 2916 -91 2278 -91 
Q 1894 -91 1617 61 
Q 1341 213 1159 525 
z
M 3116 1747 
Q 3116 2381 2855 2742 
Q 2594 3103 2138 3103 
Q 1681 3103 1420 2742 
Q 1159 2381 1159 1747 
Q 1159 1113 1420 752 
Q 1681 391 2138 391 
Q 2594 391 2855 752 
Q 3116 1113 3116 1747 
z
" transform="scale(0.015625)"/>
       <path id="DejaVuSans-74" d="M 1172 4494 
L 1172 3500 
L 2356 3500 
L 2356 3053 
L 1172 3053 
L 1172 1153 
Q 1172 725 1289 603 
Q 1406 481 1766 481 
L 2356 481 
L 2356 0 
L 1766 0 
Q 1100 0 847 248 
Q 594 497 594 1153 
L 594 3053 
L 172 3053 
L 172 3500 
L 594 3500 
L 594 4494 
L 1172 4494 
z
" transform="scale(0.015625)"/>
       <path id="DejaVuSans-68" d="M 3513 2113 
L 3513 0 
L 2938 0 
L 2938 2094 
Q 2938 2591 2744 2837 
Q 2550 3084 2163 3084 
Q 1697 3084 1428 2787 
Q 1159 2491 1159 1978 
L 1159 0 
L 581 0 
L 581 4863 
L 1159 4863 
L 1159 2956 
Q 1366 3272 1645 3428 
Q 1925 3584 2291 3584 
Q 2894 3584 3203 3211 
Q 3513 2838 3513 2113 
z
" transform="scale(0.015625)"/>
       <path id="DejaVuSans-6b" d="M 581 4863 
L 1159 4863 
L 1159 1991 
L 2875 3500 
L 3609 3500 
L 1753 1863 
L 3688 0 
L 2938 0 
L 1159 1709 
L 1159 0 
L 581 0 
L 581 4863 
z
" transform="scale(0.015625)"/>
      </defs>
      <use xlink:href="#DejaVuSans-72"/>
      <use xlink:href="#DejaVuSans-65" transform="translate(38.863281 0)"/>
      <use xlink:href="#DejaVuSans-61" transform="translate(100.386719 0)"/>
      <use xlink:href="#DejaVuSans-73" transform="translate(161.666016 0)"/>
      <use xlink:href="#DejaVuSans-6f" transform="translate(213.765625 0)"/>
      <use xlink:href="#DejaVuSans-6e" transform="translate(274.947266 0)"/>
      <use xlink:href="#DejaVuSans-69" transform="translate(338.326172 0)"/>
      <use xlink:href="#DejaVuSans-6e" transform="translate(366.109375 0)"/>
      <use xlink:href="#DejaVuSans-67" transform="translate(429.488281 0)"/>
      <use xlink:href="#DejaVuSans-20" transform="translate(492.964844 0)"/>
      <use xlink:href="#DejaVuSans-64" transform="translate(524.751953 0)"/>
      <use xlink:href="#DejaVuSans-65" transform="translate(588.228516 0)"/>
      <use xlink:href="#DejaVuSans-70" transform="translate(649.751953 0)"/>
      <use xlink:href="#DejaVuSans-74" transform="translate(713.228516 0)"/>
      <use xlink:href="#DejaVuSans-68" transform="translate(752.4375 0)"/>
      <use xlink:href="#DejaVuSans-20" transform="translate(815.816406 0)"/>
      <use xlink:href="#DejaVuSans-6b" transform="translate(847.603516 0)"/>
     </g>
    </g>
   </g>
   <g id="matplotlib.axis_2">
    <g id="ytick_1">
     <g id="line2d_13">
      <path d="M 43.78125 275.704 
L 361.847917 275.704 
" clip-path="url(#pe073d2bcc5)" style="fill: none; stroke: #b0b0b0; stroke-opacity: 0.25; stroke-width: 0.8; stroke-linecap: square"/>
     </g>
     <g id="line2d_14">
      <defs>
       <path id="m2e1baf4dcd" d="M 0 0 
L -3.5 0 
" style="stroke: #000000; stroke-width: 0.8"/>
      </defs>
      <g>
       <use xlink:href="#m2e1baf4dcd" x="43.78125" y="275.704" style="stroke: #000000; stroke-width: 0.8"/>
      </g>
     </g>
     <g id="text_8">
      <!-- 0.0 -->
      <g transform="translate(20.878125 279.503219) scale(0.1 -0.1)">
       <defs>
        <path id="DejaVuSans-30" d="M 2034 4250 
Q 1547 4250 1301 3770 
Q 1056 3291 1056 2328 
Q 1056 1369 1301 889 
Q 1547 409 2034 409 
Q 2525 409 2770 889 
Q 3016 1369 3016 2328 
Q 3016 3291 2770 3770 
Q 2525 4250 2034 4250 
z
M 2034 4750 
Q 2819 4750 3233 4129 
Q 3647 3509 3647 2328 
Q 3647 1150 3233 529 
Q 2819 -91 2034 -91 
Q 1250 -91 836 529 
Q 422 1150 422 2328 
Q 422 3509 836 4129 
Q 1250 4750 2034 4750 
z
" transform="scale(0.015625)"/>
        <path id="DejaVuSans-2e" d="M 684 794 
L 1344 794 
L 1344 0 
L 684 0 
L 684 794 
z
" transform="scale(0.015625)"/>
       </defs>
       <use xlink:href="#DejaVuSans-30"/>
       <use xlink:href="#DejaVuSans-2e" transform="translate(63.623047 0)"/>
       <use xlink:href="#DejaVuSans-30" transform="translate(95.410156 0)"/>
      </g>
     </g>
    </g>
    <g id="ytick_2">
     <g id="line2d_15">
      <path d="M 43.78125 232.724952 
L 361.847917 232.724952 
" clip-path="url(#pe073d2bcc5)" style="fill: none; stroke: #b0b0b0; stroke-opacity: 0.25; stroke-width: 0.8; stroke-linecap: square"/>
     </g>
     <g id="line2d_16">
      <g>
       <use xlink:href="#m2e1baf4dcd" x="43.78125" y="232.724952" style="stroke: #000000; stroke-width: 0.8"/>
      </g>
     </g>
     <g id="text_9">
      <!-- 0.2 -->
      <g transform="translate(20.878125 236.524171) scale(0.1 -0.1)">
       <use xlink:href="#DejaVuSans-30"/>
       <use xlink:href="#DejaVuSans-2e" transform="translate(63.623047 0)"/>
       <use xlink:href="#DejaVuSans-32" transform="translate(95.410156 0)"/>
      </g>
     </g>
    </g>
    <g id="ytick_3">
     <g id="line2d_17">
      <path d="M 43.78125 189.745905 
L 361.847917 189.745905 
" clip-path="url(#pe073d2bcc5)" style="fill: none; stroke: #b0b0b0; stroke-opacity: 0.25; stroke-width: 0.8; stroke-linecap: square"/>
     </g>
     <g id="line2d_18">
      <g>
       <use xlink:href="#m2e1baf4dcd" x="43.78125" y="189.745905" style="stroke: #000000; stroke-width: 0.8"/>
      </g>
     </g>
     <g id="text_10">
      <!-- 0.4 -->
      <g transform="translate(20.878125 193.545124) scale(0.1 -0.1)">
       <use xlink:href="#DejaVuSans-30"/>
       <use xlink:href="#DejaVuSans-2e" transform="translate(63.623047 0)"/>
       <use xlink:href="#DejaVuSans-34" transform="translate(95.410156 0)"/>
      </g>
     </g>
    </g>
    <g id="ytick_4">
     <g id="line2d_19">
      <path d="M 43.78125 146.766857 
L 361.847917 146.766857 
" clip-path="url(#pe073d2bcc5)" style="fill: none; stroke: #b0b0b0; stroke-opacity: 0.25; stroke-width: 0.8; stroke-linecap: square"/>
     </g>
     <g id="line2d_20">
      <g>
       <use xlink:href="#m2e1baf4dcd" x="43.78125" y="146.766857" style="stroke: #000000; stroke-width: 0.8"/>
      </g>
     </g>
     <g id="text_11">
      <!-- 0.6 -->
      <g transform="translate(20.878125 150.566076) scale(0.1 -0.1)">
       <use xlink:href="#DejaVuSans-30"/>
       <use xlink:href="#DejaVuSans-2e" transform="translate(63.623047 0)"/>
       <use xlink:href="#DejaVuSans-36" transform="translate(95.410156 0)"/>
      </g>
     </g>
    </g>
    <g id="ytick_5">
     <g id="line2d_21">
      <path d="M 43.78125 103.78781 
L 361.847917 103.78781 
" clip-path="url(#pe073d2bcc5)" style="fill: none; stroke: #b0b0b0; stroke-opacity: 0.25; stroke-width: 0.8; stroke-linecap: square"/>
     </g>
     <g id="line2d_22">
      <g>
       <use xlink:href="#m2e1baf4dcd" x="43.78125" y="103.78781" style="stroke: #000000; stroke-width: 0.8"/>
      </g>
     </g>
     <g id="text_12">
      <!-- 0.8 -->
      <g transform="translate(20.878125 107.587028) scale(0.1 -0.1)">
       <defs>
        <path id="DejaVuSans-38" d="M 2034 2216 
Q 1584 2216 1326 1975 
Q 1069 1734 1069 1313 
Q 1069 891 1326 650 
Q 1584 409 2034 409 
Q 2484 409 2743 651 
Q 3003 894 3003 1313 
Q 3003 1734 2745 1975 
Q 2488 2216 2034 2216 
z
M 1403 2484 
Q 997 2584 770 2862 
Q 544 3141 544 3541 
Q 544 4100 942 4425 
Q 1341 4750 2034 4750 
Q 2731 4750 3128 4425 
Q 3525 4100 3525 3541 
Q 3525 3141 3298 2862 
Q 3072 2584 2669 2484 
Q 3125 2378 3379 2068 
Q 3634 1759 3634 1313 
Q 3634 634 3220 271 
Q 2806 -91 2034 -91 
Q 1263 -91 848 271 
Q 434 634 434 1313 
Q 434 1759 690 2068 
Q 947 2378 1403 2484 
z
M 1172 3481 
Q 1172 3119 1398 2916 
Q 1625 2713 2034 2713 
Q 2441 2713 2670 2916 
Q 2900 3119 2900 3481 
Q 2900 3844 2670 4047 
Q 2441 4250 2034 4250 
Q 1625 4250 1398 4047 
Q 1172 3844 1172 3481 
z
" transform="scale(0.015625)"/>
       </defs>
       <use xlink:href="#DejaVuSans-30"/>
       <use xlink:href="#DejaVuSans-2e" transform="translate(63.623047 0)"/>
       <use xlink:href="#DejaVuSans-38" transform="translate(95.410156 0)"/>
      </g>
     </g>
    </g>
    <g id="ytick_6">
     <g id="line2d_23">
      <path d="M 43.78125 60.808762 
L 361.847917 60.808762 
" clip-path="url(#pe073d2bcc5)" style="fill: none; stroke: #b0b0b0; stroke-opacity: 0.25; stroke-width: 0.8; stroke-linecap: square"/>
     </g>
     <g id="line2d_24">
      <g>
       <use xlink:href="#m2e1baf4dcd" x="43.78125" y="60.808762" style="stroke: #000000; stroke-width: 0.8"/>
      </g>
     </g>
     <g id="text_13">
      <!-- 1.0 -->
      <g transform="translate(20.878125 64.607981) scale(0.1 -0.1)">
       <use xlink:href="#DejaVuSans-31"/>
       <use xlink:href="#DejaVuSans-2e" transform="translate(63.623047 0)"/>
       <use xlink:href="#DejaVuSans-30" transform="translate(95.410156 0)"/>
      </g>
     </g>
    </g>
    <g id="text_14">
     <!-- accuracy -->
     <g transform="translate(14.798438 185.443375) rotate(-90) scale(0.1 -0.1)">
      <defs>
       <path id="DejaVuSans-63" d="M 3122 3366 
L 3122 2828 
Q 2878 2963 2633 3030 
Q 2388 3097 2138 3097 
Q 1578 3097 1268 2742 
Q 959 2388 959 1747 
Q 959 1106 1268 751 
Q 1578 397 2138 397 
Q 2388 397 2633 464 
Q 2878 531 3122 666 
L 3122 134 
Q 2881 22 2623 -34 
Q 2366 -91 2075 -91 
Q 1284 -91 818 406 
Q 353 903 353 1747 
Q 353 2603 823 3093 
Q 1294 3584 2113 3584 
Q 2378 3584 2631 3529 
Q 2884 3475 3122 3366 
z
" transform="scale(0.015625)"/>
       <path id="DejaVuSans-75" d="M 544 1381 
L 544 3500 
L 1119 3500 
L 1119 1403 
Q 1119 906 1312 657 
Q 1506 409 1894 409 
Q 2359 409 2629 706 
Q 2900 1003 2900 1516 
L 2900 3500 
L 3475 3500 
L 3475 0 
L 2900 0 
L 2900 538 
Q 2691 219 2414 64 
Q 2138 -91 1772 -91 
Q 1169 -91 856 284 
Q 544 659 544 1381 
z
M 1991 3584 
L 1991 3584 
z
" transform="scale(0.015625)"/>
       <path id="DejaVuSans-79" d="M 2059 -325 
Q 1816 -950 1584 -1140 
Q 1353 -1331 966 -1331 
L 506 -1331 
L 506 -850 
L 844 -850 
Q 1081 -850 1212 -737 
Q 1344 -625 1503 -206 
L 1606 56 
L 191 3500 
L 800 3500 
L 1894 763 
L 2988 3500 
L 3597 3500 
L 2059 -325 
z
" transform="scale(0.015625)"/>
      </defs>
      <use xlink:href="#DejaVuSans-61"/>
      <use xlink:href="#DejaVuSans-63" transform="translate(61.279297 0)"/>
      <use xlink:href="#DejaVuSans-63" transform="translate(116.259766 0)"/>
      <use xlink:href="#DejaVuSans-75" transform="translate(171.240234 0)"/>
      <use xlink:href="#DejaVuSans-72" transform="translate(234.619141 0)"/>
      <use xlink:href="#DejaVuSans-61" transform="translate(275.732422 0)"/>
      <use xlink:href="#DejaVuSans-63" transform="translate(337.011719 0)"/>
      <use xlink:href="#DejaVuSans-79" transform="translate(391.992188 0)"/>
     </g>
    </g>
   </g>
   <g id="line2d_25">
    <path d="M 58.238826 62.241397 
L 116.069129 62.241397 
L 173.899432 62.241397 
L 231.729735 62.957714 
L 289.560038 65.822984 
L 347.390341 75.135111 
" clip-path="url(#pe073d2bcc5)" style="fill: none; stroke: #6b7280; stroke-width: 2; stroke-linecap: square"/>
    <defs>
     <path id="m0c8d27162a" d="M 0 2.5 
C 0.663008 2.5 1.29895 2.236584 1.767767 1.767767 
C 2.236584 1.29895 2.5 0.663008 2.5 0 
C 2.5 -0.663008 2.236584 -1.29895 1.767767 -1.767767 
C 1.29895 -2.236584 0.663008 -2.5 0 -2.5 
C -0.663008 -2.5 -1.29895 -2.236584 -1.767767 -1.767767 
C -2.236584 -1.29895 -2.5 -0.663008 -2.5 0 
C -2.5 0.663008 -2.236584 1.29895 -1.767767 1.767767 
C -1.29895 2.236584 -0.663008 2.5 0 2.5 
z
" style="stroke: #6b7280"/>
    </defs>
    <g clip-path="url(#pe073d2bcc5)">
     <use xlink:href="#m0c8d27162a" x="58.238826" y="62.241397" style="fill: #6b7280; stroke: #6b7280"/>
     <use xlink:href="#m0c8d27162a" x="116.069129" y="62.241397" style="fill: #6b7280; stroke: #6b7280"/>
     <use xlink:href="#m0c8d27162a" x="173.899432" y="62.241397" style="fill: #6b7280; stroke: #6b7280"/>
     <use xlink:href="#m0c8d27162a" x="231.729735" y="62.957714" style="fill: #6b7280; stroke: #6b7280"/>
     <use xlink:href="#m0c8d27162a" x="289.560038" y="65.822984" style="fill: #6b7280; stroke: #6b7280"/>
     <use xlink:href="#m0c8d27162a" x="347.390341" y="75.135111" style="fill: #6b7280; stroke: #6b7280"/>
    </g>
   </g>
   <g id="line2d_26">
    <path d="M 58.238826 65.822984 
L 116.069129 71.553524 
L 173.899432 84.447238 
L 231.729735 112.383619 
L 289.560038 142.468952 
L 347.390341 159.660571 
" clip-path="url(#pe073d2bcc5)" style="fill: none; stroke: #d97706; stroke-width: 2; stroke-linecap: square"/>
    <defs>
     <path id="m5e7f001ee8" d="M 0 2.5 
C 0.663008 2.5 1.29895 2.236584 1.767767 1.767767 
C 2.236584 1.29895 2.5 0.663008 2.5 0 
C 2.5 -0.663008 2.236584 -1.29895 1.767767 -1.767767 
C 1.29895 -2.236584 0.663008 -2.5 0 -2.5 
C -0.663008 -2.5 -1.29895 -2.236584 -1.767767 -1.767767 
C -2.236584 -1.29895 -2.5 -0.663008 -2.5 0 
C -2.5 0.663008 -2.236584 1.29895 -1.767767 1.767767 
C -1.29895 2.236584 -0.663008 2.5 0 2.5 
z
" style="stroke: #d97706"/>
    </defs>
    <g clip-path="url(#pe073d2bcc5)">
     <use xlink:href="#m5e7f001ee8" x="58.238826" y="65.822984" style="fill: #d97706; stroke: #d97706"/>
     <use xlink:href="#m5e7f001ee8" x="116.069129" y="71.553524" style="fill: #d97706; stroke: #d97706"/>
     <use xlink:href="#m5e7f001ee8" x="173.899432" y="84.447238" style="fill: #d97706; stroke: #d97706"/>
     <use xlink:href="#m5e7f001ee8" x="231.729735" y="112.383619" style="fill: #d97706; stroke: #d97706"/>
     <use xlink:href="#m5e7f001ee8" x="289.560038" y="142.468952" style="fill: #d97706; stroke: #d97706"/>
     <use xlink:href="#m5e7f001ee8" x="347.390341" y="159.660571" style="fill: #d97706; stroke: #d97706"/>
    </g>
   </g>
   <g id="line2d_27">
    <path d="M 43.78125 254.214476 
L 361.847917 254.214476 
" clip-path="url(#pe073d2bcc5)" style="fill: none; stroke-dasharray: 3.7,1.6; stroke-dashoffset: 0; stroke: #9ca3af"/>
   </g>
   <g id="patch_3">
    <path d="M 43.78125 275.704 
L 43.78125 50.064 
" style="fill: none; stroke: #000000; stroke-width: 0.8; stroke-linejoin: miter; stroke-linecap: square"/>
   </g>
   <g id="patch_4">
    <path d="M 361.847917 275.704 
L 361.847917 50.064 
" style="fill: none; stroke: #000000; stroke-width: 0.8; stroke-linejoin: miter; stroke-linecap: square"/>
   </g>
   <g id="patch_5">
    <path d="M 43.78125 275.704 
L 361.847917 275.704 
" style="fill: none; stroke: #000000; stroke-width: 0.8; stroke-linejoin: miter; stroke-linecap: square"/>
   </g>
   <g id="patch_6">
    <path d="M 43.78125 50.064 
L 361.847917 50.064 
" style="fill: none; stroke: #000000; stroke-width: 0.8; stroke-linejoin: miter; stroke-linecap: square"/>
   </g>
   <g id="text_15">
    <!-- Ones digit  (Z10 chain, shallow) -->
    <g transform="translate(115.474583 44.064) scale(0.11 -0.11)">
     <defs>
      <path id="DejaVuSans-4f" d="M 2522 4238 
Q 1834 4238 1429 3725 
Q 1025 3213 1025 2328 
Q 1025 1447 1429 934 
Q 1834 422 2522 422 
Q 3209 422 3611 934 
Q 4013 1447 4013 2328 
Q 4013 3213 3611 3725 
Q 3209 4238 2522 4238 
z
M 2522 4750 
Q 3503 4750 4090 4092 
Q 4678 3434 4678 2328 
Q 4678 1225 4090 567 
Q 3503 -91 2522 -91 
Q 1538 -91 948 565 
Q 359 1222 359 2328 
Q 359 3434 948 4092 
Q 1538 4750 2522 4750 
z
" transform="scale(0.015625)"/>
      <path id="DejaVuSans-28" d="M 1984 4856 
Q 1566 4138 1362 3434 
Q 1159 2731 1159 2009 
Q 1159 1288 1364 580 
Q 1569 -128 1984 -844 
L 1484 -844 
Q 1016 -109 783 600 
Q 550 1309 550 2009 
Q 550 2706 781 3412 
Q 1013 4119 1484 4856 
L 1984 4856 
z
" transform="scale(0.015625)"/>
      <path id="DejaVuSans-5a" d="M 359 4666 
L 4025 4666 
L 4025 4184 
L 1075 531 
L 4097 531 
L 4097 0 
L 288 0 
L 288 481 
L 3238 4134 
L 359 4134 
L 359 4666 
z
" transform="scale(0.015625)"/>
      <path id="DejaVuSans-2c" d="M 750 794 
L 1409 794 
L 1409 256 
L 897 -744 
L 494 -744 
L 750 256 
L 750 794 
z
" transform="scale(0.015625)"/>
      <path id="DejaVuSans-6c" d="M 603 4863 
L 1178 4863 
L 1178 0 
L 603 0 
L 603 4863 
z
" transform="scale(0.015625)"/>
      <path id="DejaVuSans-77" d="M 269 3500 
L 844 3500 
L 1563 769 
L 2278 3500 
L 2956 3500 
L 3675 769 
L 4391 3500 
L 4966 3500 
L 4050 0 
L 3372 0 
L 2619 2869 
L 1863 0 
L 1184 0 
L 269 3500 
z
" transform="scale(0.015625)"/>
      <path id="DejaVuSans-29" d="M 513 4856 
L 1013 4856 
Q 1481 4119 1714 3412 
Q 1947 2706 1947 2009 
Q 1947 1309 1714 600 
Q 1481 -109 1013 -844 
L 513 -844 
Q 928 -128 1133 580 
Q 1338 1288 1338 2009 
Q 1338 2731 1133 3434 
Q 928 4138 513 4856 
z
" transform="scale(0.015625)"/>
     </defs>
     <use xlink:href="#DejaVuSans-4f"/>
     <use xlink:href="#DejaVuSans-6e" transform="translate(78.710938 0)"/>
     <use xlink:href="#DejaVuSans-65" transform="translate(142.089844 0)"/>
     <use xlink:href="#DejaVuSans-73" transform="translate(203.613281 0)"/>
     <use xlink:href="#DejaVuSans-20" transform="translate(255.712891 0)"/>
     <use xlink:href="#DejaVuSans-64" transform="translate(287.5 0)"/>
     <use xlink:href="#DejaVuSans-69" transform="translate(350.976562 0)"/>
     <use xlink:href="#DejaVuSans-67" transform="translate(378.759766 0)"/>
     <use xlink:href="#DejaVuSans-69" transform="translate(442.236328 0)"/>
     <use xlink:href="#DejaVuSans-74" transform="translate(470.019531 0)"/>
     <use xlink:href="#DejaVuSans-20" transform="translate(509.228516 0)"/>
     <use xlink:href="#DejaVuSans-20" transform="translate(541.015625 0)"/>
     <use xlink:href="#DejaVuSans-28" transform="translate(572.802734 0)"/>
     <use xlink:href="#DejaVuSans-5a" transform="translate(611.816406 0)"/>
     <use xlink:href="#DejaVuSans-31" transform="translate(680.322266 0)"/>
     <use xlink:href="#DejaVuSans-30" transform="translate(743.945312 0)"/>
     <use xlink:href="#DejaVuSans-20" transform="translate(807.568359 0)"/>
     <use xlink:href="#DejaVuSans-63" transform="translate(839.355469 0)"/>
     <use xlink:href="#DejaVuSans-68" transform="translate(894.335938 0)"/>
     <use xlink:href="#DejaVuSans-61" transform="translate(957.714844 0)"/>
     <use xlink:href="#DejaVuSans-69" transform="translate(1018.994141 0)"/>
     <use xlink:href="#DejaVuSans-6e" transform="translate(1046.777344 0)"/>
     <use xlink:href="#DejaVuSans-2c" transform="translate(1110.15625 0)"/>
     <use xlink:href="#DejaVuSans-20" transform="translate(1141.943359 0)"/>
     <use xlink:href="#DejaVuSans-73" transform="translate(1173.730469 0)"/>
     <use xlink:href="#DejaVuSans-68" transform="translate(1225.830078 0)"/>
     <use xlink:href="#DejaVuSans-61" transform="translate(1289.208984 0)"/>
     <use xlink:href="#DejaVuSans-6c" transform="translate(1350.488281 0)"/>
     <use xlink:href="#DejaVuSans-6c" transform="translate(1378.271484 0)"/>
     <use xlink:href="#DejaVuSans-6f" transform="translate(1406.054688 0)"/>
     <use xlink:href="#DejaVuSans-77" transform="translate(1467.236328 0)"/>
     <use xlink:href="#DejaVuSans-29" transform="translate(1549.023438 0)"/>
    </g>
   </g>
   <g id="legend_1">
    <g id="patch_7">
     <path d="M 50.08125 184.049469 
L 166.65375 184.049469 
Q 168.45375 184.049469 168.45375 182.249469 
L 168.45375 143.518531 
Q 168.45375 141.718531 166.65375 141.718531 
L 50.08125 141.718531 
Q 48.28125 141.718531 48.28125 143.518531 
L 48.28125 182.249469 
Q 48.28125 184.049469 50.08125 184.049469 
z
" style="fill: #ffffff; opacity: 0.8; stroke: #cccccc; stroke-linejoin: miter"/>
    </g>
    <g id="line2d_28">
     <path d="M 51.88125 149.007125 
L 60.88125 149.007125 
L 69.88125 149.007125 
" style="fill: none; stroke: #6b7280; stroke-width: 2; stroke-linecap: square"/>
     <g>
      <use xlink:href="#m0c8d27162a" x="60.88125" y="149.007125" style="fill: #6b7280; stroke: #6b7280"/>
     </g>
    </g>
    <g id="text_16">
     <!-- Vanilla -->
     <g transform="translate(77.08125 152.157125) scale(0.09 -0.09)">
      <defs>
       <path id="DejaVuSans-56" d="M 1831 0 
L 50 4666 
L 709 4666 
L 2188 738 
L 3669 4666 
L 4325 4666 
L 2547 0 
L 1831 0 
z
" transform="scale(0.015625)"/>
      </defs>
      <use xlink:href="#DejaVuSans-56"/>
      <use xlink:href="#DejaVuSans-61" transform="translate(60.658203 0)"/>
      <use xlink:href="#DejaVuSans-6e" transform="translate(121.9375 0)"/>
      <use xlink:href="#DejaVuSans-69" transform="translate(185.316406 0)"/>
      <use xlink:href="#DejaVuSans-6c" transform="translate(213.099609 0)"/>
      <use xlink:href="#DejaVuSans-6c" transform="translate(240.882812 0)"/>
      <use xlink:href="#DejaVuSans-61" transform="translate(268.666016 0)"/>
     </g>
    </g>
    <g id="line2d_29">
     <path d="M 51.88125 162.217437 
L 60.88125 162.217437 
L 69.88125 162.217437 
" style="fill: none; stroke: #d97706; stroke-width: 2; stroke-linecap: square"/>
     <g>
      <use xlink:href="#m5e7f001ee8" x="60.88125" y="162.217437" style="fill: #d97706; stroke: #d97706"/>
     </g>
    </g>
    <g id="text_17">
     <!-- Complete Attention -->
     <g transform="translate(77.08125 165.367437) scale(0.09 -0.09)">
      <defs>
       <path id="DejaVuSans-43" d="M 4122 4306 
L 4122 3641 
Q 3803 3938 3442 4084 
Q 3081 4231 2675 4231 
Q 1875 4231 1450 3742 
Q 1025 3253 1025 2328 
Q 1025 1406 1450 917 
Q 1875 428 2675 428 
Q 3081 428 3442 575 
Q 3803 722 4122 1019 
L 4122 359 
Q 3791 134 3420 21 
Q 3050 -91 2638 -91 
Q 1578 -91 968 557 
Q 359 1206 359 2328 
Q 359 3453 968 4101 
Q 1578 4750 2638 4750 
Q 3056 4750 3426 4639 
Q 3797 4528 4122 4306 
z
" transform="scale(0.015625)"/>
       <path id="DejaVuSans-6d" d="M 3328 2828 
Q 3544 3216 3844 3400 
Q 4144 3584 4550 3584 
Q 5097 3584 5394 3201 
Q 5691 2819 5691 2113 
L 5691 0 
L 5113 0 
L 5113 2094 
Q 5113 2597 4934 2840 
Q 4756 3084 4391 3084 
Q 3944 3084 3684 2787 
Q 3425 2491 3425 1978 
L 3425 0 
L 2847 0 
L 2847 2094 
Q 2847 2600 2669 2842 
Q 2491 3084 2119 3084 
Q 1678 3084 1418 2786 
Q 1159 2488 1159 1978 
L 1159 0 
L 581 0 
L 581 3500 
L 1159 3500 
L 1159 2956 
Q 1356 3278 1631 3431 
Q 1906 3584 2284 3584 
Q 2666 3584 2933 3390 
Q 3200 3197 3328 2828 
z
" transform="scale(0.015625)"/>
       <path id="DejaVuSans-41" d="M 2188 4044 
L 1331 1722 
L 3047 1722 
L 2188 4044 
z
M 1831 4666 
L 2547 4666 
L 4325 0 
L 3669 0 
L 3244 1197 
L 1141 1197 
L 716 0 
L 50 0 
L 1831 4666 
z
" transform="scale(0.015625)"/>
      </defs>
      <use xlink:href="#DejaVuSans-43"/>
      <use xlink:href="#DejaVuSans-6f" transform="translate(69.824219 0)"/>
      <use xlink:href="#DejaVuSans-6d" transform="translate(131.005859 0)"/>
      <use xlink:href="#DejaVuSans-70" transform="translate(228.417969 0)"/>
      <use xlink:href="#DejaVuSans-6c" transform="translate(291.894531 0)"/>
      <use xlink:href="#DejaVuSans-65" transform="translate(319.677734 0)"/>
      <use xlink:href="#DejaVuSans-74" transform="translate(381.201172 0)"/>
      <use xlink:href="#DejaVuSans-65" transform="translate(420.410156 0)"/>
      <use xlink:href="#DejaVuSans-20" transform="translate(481.933594 0)"/>
      <use xlink:href="#DejaVuSans-41" transform="translate(513.720703 0)"/>
      <use xlink:href="#DejaVuSans-74" transform="translate(580.378906 0)"/>
      <use xlink:href="#DejaVuSans-74" transform="translate(619.587891 0)"/>
      <use xlink:href="#DejaVuSans-65" transform="translate(658.796875 0)"/>
      <use xlink:href="#DejaVuSans-6e" transform="translate(720.320312 0)"/>
      <use xlink:href="#DejaVuSans-74" transform="translate(783.699219 0)"/>
      <use xlink:href="#DejaVuSans-69" transform="translate(822.908203 0)"/>
      <use xlink:href="#DejaVuSans-6f" transform="translate(850.691406 0)"/>
      <use xlink:href="#DejaVuSans-6e" transform="translate(911.873047 0)"/>
     </g>
    </g>
    <g id="line2d_30">
     <path d="M 51.88125 175.42775 
L 60.88125 175.42775 
L 69.88125 175.42775 
" style="fill: none; stroke-dasharray: 3.7,1.6; stroke-dashoffset: 0; stroke: #9ca3af"/>
    </g>
    <g id="text_18">
     <!-- chance 10% -->
     <g transform="translate(77.08125 178.57775) scale(0.09 -0.09)">
      <defs>
       <path id="DejaVuSans-25" d="M 4653 2053 
Q 4381 2053 4226 1822 
Q 4072 1591 4072 1178 
Q 4072 772 4226 539 
Q 4381 306 4653 306 
Q 4919 306 5073 539 
Q 5228 772 5228 1178 
Q 5228 1588 5073 1820 
Q 4919 2053 4653 2053 
z
M 4653 2450 
Q 5147 2450 5437 2106 
Q 5728 1763 5728 1178 
Q 5728 594 5436 251 
Q 5144 -91 4653 -91 
Q 4153 -91 3862 251 
Q 3572 594 3572 1178 
Q 3572 1766 3864 2108 
Q 4156 2450 4653 2450 
z
M 1428 4353 
Q 1159 4353 1004 4120 
Q 850 3888 850 3481 
Q 850 3069 1003 2837 
Q 1156 2606 1428 2606 
Q 1700 2606 1854 2837 
Q 2009 3069 2009 3481 
Q 2009 3884 1853 4118 
Q 1697 4353 1428 4353 
z
M 4250 4750 
L 4750 4750 
L 1831 -91 
L 1331 -91 
L 4250 4750 
z
M 1428 4750 
Q 1922 4750 2215 4408 
Q 2509 4066 2509 3481 
Q 2509 2891 2217 2550 
Q 1925 2209 1428 2209 
Q 931 2209 642 2551 
Q 353 2894 353 3481 
Q 353 4063 643 4406 
Q 934 4750 1428 4750 
z
" transform="scale(0.015625)"/>
      </defs>
      <use xlink:href="#DejaVuSans-63"/>
      <use xlink:href="#DejaVuSans-68" transform="translate(54.980469 0)"/>
      <use xlink:href="#DejaVuSans-61" transform="translate(118.359375 0)"/>
      <use xlink:href="#DejaVuSans-6e" transform="translate(179.638672 0)"/>
      <use xlink:href="#DejaVuSans-63" transform="translate(243.017578 0)"/>
      <use xlink:href="#DejaVuSans-65" transform="translate(297.998047 0)"/>
      <use xlink:href="#DejaVuSans-20" transform="translate(359.521484 0)"/>
      <use xlink:href="#DejaVuSans-31" transform="translate(391.308594 0)"/>
      <use xlink:href="#DejaVuSans-30" transform="translate(454.931641 0)"/>
      <use xlink:href="#DejaVuSans-25" transform="translate(518.554688 0)"/>
     </g>
    </g>
   </g>
  </g>
  <g id="axes_2">
   <g id="patch_8">
    <path d="M 395.487917 275.704 
L 713.554583 275.704 
L 713.554583 50.064 
L 395.487917 50.064 
z
" style="fill: #ffffff"/>
   </g>
   <g id="matplotlib.axis_3">
    <g id="xtick_7">
     <g id="line2d_31">
      <path d="M 409.945492 275.704 
L 409.945492 50.064 
" clip-path="url(#pdc67fcd33b)" style="fill: none; stroke: #b0b0b0; stroke-opacity: 0.25; stroke-width: 0.8; stroke-linecap: square"/>
     </g>
     <g id="line2d_32">
      <g>
       <use xlink:href="#mc9a65fa7d0" x="409.945492" y="275.704" style="stroke: #000000; stroke-width: 0.8"/>
      </g>
     </g>
     <g id="text_19">
      <!-- 1 -->
      <g transform="translate(406.764242 290.302437) scale(0.1 -0.1)">
       <use xlink:href="#DejaVuSans-31"/>
      </g>
     </g>
    </g>
    <g id="xtick_8">
     <g id="line2d_33">
      <path d="M 467.775795 275.704 
L 467.775795 50.064 
" clip-path="url(#pdc67fcd33b)" style="fill: none; stroke: #b0b0b0; stroke-opacity: 0.25; stroke-width: 0.8; stroke-linecap: square"/>
     </g>
     <g id="line2d_34">
      <g>
       <use xlink:href="#mc9a65fa7d0" x="467.775795" y="275.704" style="stroke: #000000; stroke-width: 0.8"/>
      </g>
     </g>
     <g id="text_20">
      <!-- 2 -->
      <g transform="translate(464.594545 290.302437) scale(0.1 -0.1)">
       <use xlink:href="#DejaVuSans-32"/>
      </g>
     </g>
    </g>
    <g id="xtick_9">
     <g id="line2d_35">
      <path d="M 525.606098 275.704 
L 525.606098 50.064 
" clip-path="url(#pdc67fcd33b)" style="fill: none; stroke: #b0b0b0; stroke-opacity: 0.25; stroke-width: 0.8; stroke-linecap: square"/>
     </g>
     <g id="line2d_36">
      <g>
       <use xlink:href="#mc9a65fa7d0" x="525.606098" y="275.704" style="stroke: #000000; stroke-width: 0.8"/>
      </g>
     </g>
     <g id="text_21">
      <!-- 3 -->
      <g transform="translate(522.424848 290.302437) scale(0.1 -0.1)">
       <use xlink:href="#DejaVuSans-33"/>
      </g>
     </g>
    </g>
    <g id="xtick_10">
     <g id="line2d_37">
      <path d="M 583.436402 275.704 
L 583.436402 50.064 
" clip-path="url(#pdc67fcd33b)" style="fill: none; stroke: #b0b0b0; stroke-opacity: 0.25; stroke-width: 0.8; stroke-linecap: square"/>
     </g>
     <g id="line2d_38">
      <g>
       <use xlink:href="#mc9a65fa7d0" x="583.436402" y="275.704" style="stroke: #000000; stroke-width: 0.8"/>
      </g>
     </g>
     <g id="text_22">
      <!-- 4 -->
      <g transform="translate(580.255152 290.302437) scale(0.1 -0.1)">
       <use xlink:href="#DejaVuSans-34"/>
      </g>
     </g>
    </g>
    <g id="xtick_11">
     <g id="line2d_39">
      <path d="M 641.266705 275.704 
L 641.266705 50.064 
" clip-path="url(#pdc67fcd33b)" style="fill: none; stroke: #b0b0b0; stroke-opacity: 0.25; stroke-width: 0.8; stroke-linecap: square"/>
     </g>
     <g id="line2d_40">
      <g>
       <use xlink:href="#mc9a65fa7d0" x="641.266705" y="275.704" style="stroke: #000000; stroke-width: 0.8"/>
      </g>
     </g>
     <g id="text_23">
      <!-- 5 -->
      <g transform="translate(638.085455 290.302437) scale(0.1 -0.1)">
       <use xlink:href="#DejaVuSans-35"/>
      </g>
     </g>
    </g>
    <g id="xtick_12">
     <g id="line2d_41">
      <path d="M 699.097008 275.704 
L 699.097008 50.064 
" clip-path="url(#pdc67fcd33b)" style="fill: none; stroke: #b0b0b0; stroke-opacity: 0.25; stroke-width: 0.8; stroke-linecap: square"/>
     </g>
     <g id="line2d_42">
      <g>
       <use xlink:href="#mc9a65fa7d0" x="699.097008" y="275.704" style="stroke: #000000; stroke-width: 0.8"/>
      </g>
     </g>
     <g id="text_24">
      <!-- 6 -->
      <g transform="translate(695.915758 290.302437) scale(0.1 -0.1)">
       <use xlink:href="#DejaVuSans-36"/>
      </g>
     </g>
    </g>
    <g id="text_25">
     <!-- reasoning depth k -->
     <g transform="translate(509.245469 303.980562) scale(0.1 -0.1)">
      <use xlink:href="#DejaVuSans-72"/>
      <use xlink:href="#DejaVuSans-65" transform="translate(38.863281 0)"/>
      <use xlink:href="#DejaVuSans-61" transform="translate(100.386719 0)"/>
      <use xlink:href="#DejaVuSans-73" transform="translate(161.666016 0)"/>
      <use xlink:href="#DejaVuSans-6f" transform="translate(213.765625 0)"/>
      <use xlink:href="#DejaVuSans-6e" transform="translate(274.947266 0)"/>
      <use xlink:href="#DejaVuSans-69" transform="translate(338.326172 0)"/>
      <use xlink:href="#DejaVuSans-6e" transform="translate(366.109375 0)"/>
      <use xlink:href="#DejaVuSans-67" transform="translate(429.488281 0)"/>
      <use xlink:href="#DejaVuSans-20" transform="translate(492.964844 0)"/>
      <use xlink:href="#DejaVuSans-64" transform="translate(524.751953 0)"/>
      <use xlink:href="#DejaVuSans-65" transform="translate(588.228516 0)"/>
      <use xlink:href="#DejaVuSans-70" transform="translate(649.751953 0)"/>
      <use xlink:href="#DejaVuSans-74" transform="translate(713.228516 0)"/>
      <use xlink:href="#DejaVuSans-68" transform="translate(752.4375 0)"/>
      <use xlink:href="#DejaVuSans-20" transform="translate(815.816406 0)"/>
      <use xlink:href="#DejaVuSans-6b" transform="translate(847.603516 0)"/>
     </g>
    </g>
   </g>
   <g id="matplotlib.axis_4">
    <g id="ytick_7">
     <g id="line2d_43">
      <path d="M 395.487917 275.704 
L 713.554583 275.704 
" clip-path="url(#pdc67fcd33b)" style="fill: none; stroke: #b0b0b0; stroke-opacity: 0.25; stroke-width: 0.8; stroke-linecap: square"/>
     </g>
     <g id="line2d_44">
      <g>
       <use xlink:href="#m2e1baf4dcd" x="395.487917" y="275.704" style="stroke: #000000; stroke-width: 0.8"/>
      </g>
     </g>
     <g id="text_26">
      <!-- 0.0 -->
      <g transform="translate(372.584792 279.503219) scale(0.1 -0.1)">
       <use xlink:href="#DejaVuSans-30"/>
       <use xlink:href="#DejaVuSans-2e" transform="translate(63.623047 0)"/>
       <use xlink:href="#DejaVuSans-30" transform="translate(95.410156 0)"/>
      </g>
     </g>
    </g>
    <g id="ytick_8">
     <g id="line2d_45">
      <path d="M 395.487917 232.724952 
L 713.554583 232.724952 
" clip-path="url(#pdc67fcd33b)" style="fill: none; stroke: #b0b0b0; stroke-opacity: 0.25; stroke-width: 0.8; stroke-linecap: square"/>
     </g>
     <g id="line2d_46">
      <g>
       <use xlink:href="#m2e1baf4dcd" x="395.487917" y="232.724952" style="stroke: #000000; stroke-width: 0.8"/>
      </g>
     </g>
     <g id="text_27">
      <!-- 0.2 -->
      <g transform="translate(372.584792 236.524171) scale(0.1 -0.1)">
       <use xlink:href="#DejaVuSans-30"/>
       <use xlink:href="#DejaVuSans-2e" transform="translate(63.623047 0)"/>
       <use xlink:href="#DejaVuSans-32" transform="translate(95.410156 0)"/>
      </g>
     </g>
    </g>
    <g id="ytick_9">
     <g id="line2d_47">
      <path d="M 395.487917 189.745905 
L 713.554583 189.745905 
" clip-path="url(#pdc67fcd33b)" style="fill: none; stroke: #b0b0b0; stroke-opacity: 0.25; stroke-width: 0.8; stroke-linecap: square"/>
     </g>
     <g id="line2d_48">
      <g>
       <use xlink:href="#m2e1baf4dcd" x="395.487917" y="189.745905" style="stroke: #000000; stroke-width: 0.8"/>
      </g>
     </g>
     <g id="text_28">
      <!-- 0.4 -->
      <g transform="translate(372.584792 193.545124) scale(0.1 -0.1)">
       <use xlink:href="#DejaVuSans-30"/>
       <use xlink:href="#DejaVuSans-2e" transform="translate(63.623047 0)"/>
       <use xlink:href="#DejaVuSans-34" transform="translate(95.410156 0)"/>
      </g>
     </g>
    </g>
    <g id="ytick_10">
     <g id="line2d_49">
      <path d="M 395.487917 146.766857 
L 713.554583 146.766857 
" clip-path="url(#pdc67fcd33b)" style="fill: none; stroke: #b0b0b0; stroke-opacity: 0.25; stroke-width: 0.8; stroke-linecap: square"/>
     </g>
     <g id="line2d_50">
      <g>
       <use xlink:href="#m2e1baf4dcd" x="395.487917" y="146.766857" style="stroke: #000000; stroke-width: 0.8"/>
      </g>
     </g>
     <g id="text_29">
      <!-- 0.6 -->
      <g transform="translate(372.584792 150.566076) scale(0.1 -0.1)">
       <use xlink:href="#DejaVuSans-30"/>
       <use xlink:href="#DejaVuSans-2e" transform="translate(63.623047 0)"/>
       <use xlink:href="#DejaVuSans-36" transform="translate(95.410156 0)"/>
      </g>
     </g>
    </g>
    <g id="ytick_11">
     <g id="line2d_51">
      <path d="M 395.487917 103.78781 
L 713.554583 103.78781 
" clip-path="url(#pdc67fcd33b)" style="fill: none; stroke: #b0b0b0; stroke-opacity: 0.25; stroke-width: 0.8; stroke-linecap: square"/>
     </g>
     <g id="line2d_52">
      <g>
       <use xlink:href="#m2e1baf4dcd" x="395.487917" y="103.78781" style="stroke: #000000; stroke-width: 0.8"/>
      </g>
     </g>
     <g id="text_30">
      <!-- 0.8 -->
      <g transform="translate(372.584792 107.587028) scale(0.1 -0.1)">
       <use xlink:href="#DejaVuSans-30"/>
       <use xlink:href="#DejaVuSans-2e" transform="translate(63.623047 0)"/>
       <use xlink:href="#DejaVuSans-38" transform="translate(95.410156 0)"/>
      </g>
     </g>
    </g>
    <g id="ytick_12">
     <g id="line2d_53">
      <path d="M 395.487917 60.808762 
L 713.554583 60.808762 
" clip-path="url(#pdc67fcd33b)" style="fill: none; stroke: #b0b0b0; stroke-opacity: 0.25; stroke-width: 0.8; stroke-linecap: square"/>
     </g>
     <g id="line2d_54">
      <g>
       <use xlink:href="#m2e1baf4dcd" x="395.487917" y="60.808762" style="stroke: #000000; stroke-width: 0.8"/>
      </g>
     </g>
     <g id="text_31">
      <!-- 1.0 -->
      <g transform="translate(372.584792 64.607981) scale(0.1 -0.1)">
       <use xlink:href="#DejaVuSans-31"/>
       <use xlink:href="#DejaVuSans-2e" transform="translate(63.623047 0)"/>
       <use xlink:href="#DejaVuSans-30" transform="translate(95.410156 0)"/>
      </g>
     </g>
    </g>
   </g>
   <g id="line2d_55">
    <path d="M 409.945492 226.278095 
L 467.775795 239.888127 
L 525.606098 226.994413 
L 583.436402 232.008635 
L 641.266705 235.590222 
L 699.097008 226.278095 
" clip-path="url(#pdc67fcd33b)" style="fill: none; stroke: #6b7280; stroke-width: 2; stroke-linecap: square"/>
    <g clip-path="url(#pdc67fcd33b)">
     <use xlink:href="#m0c8d27162a" x="409.945492" y="226.278095" style="fill: #6b7280; stroke: #6b7280"/>
     <use xlink:href="#m0c8d27162a" x="467.775795" y="239.888127" style="fill: #6b7280; stroke: #6b7280"/>
     <use xlink:href="#m0c8d27162a" x="525.606098" y="226.994413" style="fill: #6b7280; stroke: #6b7280"/>
     <use xlink:href="#m0c8d27162a" x="583.436402" y="232.008635" style="fill: #6b7280; stroke: #6b7280"/>
     <use xlink:href="#m0c8d27162a" x="641.266705" y="235.590222" style="fill: #6b7280; stroke: #6b7280"/>
     <use xlink:href="#m0c8d27162a" x="699.097008" y="226.278095" style="fill: #6b7280; stroke: #6b7280"/>
    </g>
   </g>
   <g id="line2d_56">
    <path d="M 409.945492 256.363429 
L 467.775795 255.647111 
L 525.606098 249.200254 
L 583.436402 246.334984 
L 641.266705 247.051302 
L 699.097008 246.334984 
" clip-path="url(#pdc67fcd33b)" style="fill: none; stroke: #d97706; stroke-width: 2; stroke-linecap: square"/>
    <g clip-path="url(#pdc67fcd33b)">
     <use xlink:href="#m5e7f001ee8" x="409.945492" y="256.363429" style="fill: #d97706; stroke: #d97706"/>
     <use xlink:href="#m5e7f001ee8" x="467.775795" y="255.647111" style="fill: #d97706; stroke: #d97706"/>
     <use xlink:href="#m5e7f001ee8" x="525.606098" y="249.200254" style="fill: #d97706; stroke: #d97706"/>
     <use xlink:href="#m5e7f001ee8" x="583.436402" y="246.334984" style="fill: #d97706; stroke: #d97706"/>
     <use xlink:href="#m5e7f001ee8" x="641.266705" y="247.051302" style="fill: #d97706; stroke: #d97706"/>
     <use xlink:href="#m5e7f001ee8" x="699.097008" y="246.334984" style="fill: #d97706; stroke: #d97706"/>
    </g>
   </g>
   <g id="line2d_57">
    <path d="M 395.487917 254.214476 
L 713.554583 254.214476 
" clip-path="url(#pdc67fcd33b)" style="fill: none; stroke-dasharray: 3.7,1.6; stroke-dashoffset: 0; stroke: #9ca3af"/>
   </g>
   <g id="patch_9">
    <path d="M 395.487917 275.704 
L 395.487917 50.064 
" style="fill: none; stroke: #000000; stroke-width: 0.8; stroke-linejoin: miter; stroke-linecap: square"/>
   </g>
   <g id="patch_10">
    <path d="M 713.554583 275.704 
L 713.554583 50.064 
" style="fill: none; stroke: #000000; stroke-width: 0.8; stroke-linejoin: miter; stroke-linecap: square"/>
   </g>
   <g id="patch_11">
    <path d="M 395.487917 275.704 
L 713.554583 275.704 
" style="fill: none; stroke: #000000; stroke-width: 0.8; stroke-linejoin: miter; stroke-linecap: square"/>
   </g>
   <g id="patch_12">
    <path d="M 395.487917 50.064 
L 713.554583 50.064 
" style="fill: none; stroke: #000000; stroke-width: 0.8; stroke-linejoin: miter; stroke-linecap: square"/>
   </g>
   <g id="text_32">
    <!-- Tens digit  (needs carry propagation) -->
    <g transform="translate(453.194922 44.064) scale(0.11 -0.11)">
     <defs>
      <path id="DejaVuSans-54" d="M -19 4666 
L 3928 4666 
L 3928 4134 
L 2272 4134 
L 2272 0 
L 1638 0 
L 1638 4134 
L -19 4134 
L -19 4666 
z
" transform="scale(0.015625)"/>
     </defs>
     <use xlink:href="#DejaVuSans-54"/>
     <use xlink:href="#DejaVuSans-65" transform="translate(44.083984 0)"/>
     <use xlink:href="#DejaVuSans-6e" transform="translate(105.607422 0)"/>
     <use xlink:href="#DejaVuSans-73" transform="translate(168.986328 0)"/>
     <use xlink:href="#DejaVuSans-20" transform="translate(221.085938 0)"/>
     <use xlink:href="#DejaVuSans-64" transform="translate(252.873047 0)"/>
     <use xlink:href="#DejaVuSans-69" transform="translate(316.349609 0)"/>
     <use xlink:href="#DejaVuSans-67" transform="translate(344.132812 0)"/>
     <use xlink:href="#DejaVuSans-69" transform="translate(407.609375 0)"/>
     <use xlink:href="#DejaVuSans-74" transform="translate(435.392578 0)"/>
     <use xlink:href="#DejaVuSans-20" transform="translate(474.601562 0)"/>
     <use xlink:href="#DejaVuSans-20" transform="translate(506.388672 0)"/>
     <use xlink:href="#DejaVuSans-28" transform="translate(538.175781 0)"/>
     <use xlink:href="#DejaVuSans-6e" transform="translate(577.189453 0)"/>
     <use xlink:href="#DejaVuSans-65" transform="translate(640.568359 0)"/>
     <use xlink:href="#DejaVuSans-65" transform="translate(702.091797 0)"/>
     <use xlink:href="#DejaVuSans-64" transform="translate(763.615234 0)"/>
     <use xlink:href="#DejaVuSans-73" transform="translate(827.091797 0)"/>
     <use xlink:href="#DejaVuSans-20" transform="translate(879.191406 0)"/>
     <use xlink:href="#DejaVuSans-63" transform="translate(910.978516 0)"/>
     <use xlink:href="#DejaVuSans-61" transform="translate(965.958984 0)"/>
     <use xlink:href="#DejaVuSans-72" transform="translate(1027.238281 0)"/>
     <use xlink:href="#DejaVuSans-72" transform="translate(1066.601562 0)"/>
     <use xlink:href="#DejaVuSans-79" transform="translate(1107.714844 0)"/>
     <use xlink:href="#DejaVuSans-20" transform="translate(1166.894531 0)"/>
     <use xlink:href="#DejaVuSans-70" transform="translate(1198.681641 0)"/>
     <use xlink:href="#DejaVuSans-72" transform="translate(1262.158203 0)"/>
     <use xlink:href="#DejaVuSans-6f" transform="translate(1301.021484 0)"/>
     <use xlink:href="#DejaVuSans-70" transform="translate(1362.203125 0)"/>
     <use xlink:href="#DejaVuSans-61" transform="translate(1425.679688 0)"/>
     <use xlink:href="#DejaVuSans-67" transform="translate(1486.958984 0)"/>
     <use xlink:href="#DejaVuSans-61" transform="translate(1550.435547 0)"/>
     <use xlink:href="#DejaVuSans-74" transform="translate(1611.714844 0)"/>
     <use xlink:href="#DejaVuSans-69" transform="translate(1650.923828 0)"/>
     <use xlink:href="#DejaVuSans-6f" transform="translate(1678.707031 0)"/>
     <use xlink:href="#DejaVuSans-6e" transform="translate(1739.888672 0)"/>
     <use xlink:href="#DejaVuSans-29" transform="translate(1803.267578 0)"/>
    </g>
   </g>
   <g id="legend_2">
    <g id="patch_13">
     <path d="M 590.682083 96.894937 
L 707.254583 96.894937 
Q 709.054583 96.894937 709.054583 95.094937 
L 709.054583 56.364 
Q 709.054583 54.564 707.254583 54.564 
L 590.682083 54.564 
Q 588.882083 54.564 588.882083 56.364 
L 588.882083 95.094937 
Q 588.882083 96.894937 590.682083 96.894937 
z
" style="fill: #ffffff; opacity: 0.8; stroke: #cccccc; stroke-linejoin: miter"/>
    </g>
    <g id="line2d_58">
     <path d="M 592.482083 61.852594 
L 601.482083 61.852594 
L 610.482083 61.852594 
" style="fill: none; stroke: #6b7280; stroke-width: 2; stroke-linecap: square"/>
     <g>
      <use xlink:href="#m0c8d27162a" x="601.482083" y="61.852594" style="fill: #6b7280; stroke: #6b7280"/>
     </g>
    </g>
    <g id="text_33">
     <!-- Vanilla -->
     <g transform="translate(617.682083 65.002594) scale(0.09 -0.09)">
      <use xlink:href="#DejaVuSans-56"/>
      <use xlink:href="#DejaVuSans-61" transform="translate(60.658203 0)"/>
      <use xlink:href="#DejaVuSans-6e" transform="translate(121.9375 0)"/>
      <use xlink:href="#DejaVuSans-69" transform="translate(185.316406 0)"/>
      <use xlink:href="#DejaVuSans-6c" transform="translate(213.099609 0)"/>
      <use xlink:href="#DejaVuSans-6c" transform="translate(240.882812 0)"/>
      <use xlink:href="#DejaVuSans-61" transform="translate(268.666016 0)"/>
     </g>
    </g>
    <g id="line2d_59">
     <path d="M 592.482083 75.062906 
L 601.482083 75.062906 
L 610.482083 75.062906 
" style="fill: none; stroke: #d97706; stroke-width: 2; stroke-linecap: square"/>
     <g>
      <use xlink:href="#m5e7f001ee8" x="601.482083" y="75.062906" style="fill: #d97706; stroke: #d97706"/>
     </g>
    </g>
    <g id="text_34">
     <!-- Complete Attention -->
     <g transform="translate(617.682083 78.212906) scale(0.09 -0.09)">
      <use xlink:href="#DejaVuSans-43"/>
      <use xlink:href="#DejaVuSans-6f" transform="translate(69.824219 0)"/>
      <use xlink:href="#DejaVuSans-6d" transform="translate(131.005859 0)"/>
      <use xlink:href="#DejaVuSans-70" transform="translate(228.417969 0)"/>
      <use xlink:href="#DejaVuSans-6c" transform="translate(291.894531 0)"/>
      <use xlink:href="#DejaVuSans-65" transform="translate(319.677734 0)"/>
      <use xlink:href="#DejaVuSans-74" transform="translate(381.201172 0)"/>
      <use xlink:href="#DejaVuSans-65" transform="translate(420.410156 0)"/>
      <use xlink:href="#DejaVuSans-20" transform="translate(481.933594 0)"/>
      <use xlink:href="#DejaVuSans-41" transform="translate(513.720703 0)"/>
      <use xlink:href="#DejaVuSans-74" transform="translate(580.378906 0)"/>
      <use xlink:href="#DejaVuSans-74" transform="translate(619.587891 0)"/>
      <use xlink:href="#DejaVuSans-65" transform="translate(658.796875 0)"/>
      <use xlink:href="#DejaVuSans-6e" transform="translate(720.320312 0)"/>
      <use xlink:href="#DejaVuSans-74" transform="translate(783.699219 0)"/>
      <use xlink:href="#DejaVuSans-69" transform="translate(822.908203 0)"/>
      <use xlink:href="#DejaVuSans-6f" transform="translate(850.691406 0)"/>
      <use xlink:href="#DejaVuSans-6e" transform="translate(911.873047 0)"/>
     </g>
    </g>
    <g id="line2d_60">
     <path d="M 592.482083 88.273219 
L 601.482083 88.273219 
L 610.482083 88.273219 
" style="fill: none; stroke-dasharray: 3.7,1.6; stroke-dashoffset: 0; stroke: #9ca3af"/>
    </g>
    <g id="text_35">
     <!-- chance 10% -->
     <g transform="translate(617.682083 91.423219) scale(0.09 -0.09)">
      <use xlink:href="#DejaVuSans-63"/>
      <use xlink:href="#DejaVuSans-68" transform="translate(54.980469 0)"/>
      <use xlink:href="#DejaVuSans-61" transform="translate(118.359375 0)"/>
      <use xlink:href="#DejaVuSans-6e" transform="translate(179.638672 0)"/>
      <use xlink:href="#DejaVuSans-63" transform="translate(243.017578 0)"/>
      <use xlink:href="#DejaVuSans-65" transform="translate(297.998047 0)"/>
      <use xlink:href="#DejaVuSans-20" transform="translate(359.521484 0)"/>
      <use xlink:href="#DejaVuSans-31" transform="translate(391.308594 0)"/>
      <use xlink:href="#DejaVuSans-30" transform="translate(454.931641 0)"/>
      <use xlink:href="#DejaVuSans-25" transform="translate(518.554688 0)"/>
     </g>
    </g>
   </g>
  </g>
  <g id="axes_3">
   <g id="patch_14">
    <path d="M 747.194583 275.704 
L 1065.26125 275.704 
L 1065.26125 50.064 
L 747.194583 50.064 
z
" style="fill: #ffffff"/>
   </g>
   <g id="matplotlib.axis_5">
    <g id="xtick_13">
     <g id="line2d_61">
      <path d="M 761.652159 275.704 
L 761.652159 50.064 
" clip-path="url(#p167195abf1)" style="fill: none; stroke: #b0b0b0; stroke-opacity: 0.25; stroke-width: 0.8; stroke-linecap: square"/>
     </g>
     <g id="line2d_62">
      <g>
       <use xlink:href="#mc9a65fa7d0" x="761.652159" y="275.704" style="stroke: #000000; stroke-width: 0.8"/>
      </g>
     </g>
     <g id="text_36">
      <!-- 1 -->
      <g transform="translate(758.470909 290.302437) scale(0.1 -0.1)">
       <use xlink:href="#DejaVuSans-31"/>
      </g>
     </g>
    </g>
    <g id="xtick_14">
     <g id="line2d_63">
      <path d="M 819.482462 275.704 
L 819.482462 50.064 
" clip-path="url(#p167195abf1)" style="fill: none; stroke: #b0b0b0; stroke-opacity: 0.25; stroke-width: 0.8; stroke-linecap: square"/>
     </g>
     <g id="line2d_64">
      <g>
       <use xlink:href="#mc9a65fa7d0" x="819.482462" y="275.704" style="stroke: #000000; stroke-width: 0.8"/>
      </g>
     </g>
     <g id="text_37">
      <!-- 2 -->
      <g transform="translate(816.301212 290.302437) scale(0.1 -0.1)">
       <use xlink:href="#DejaVuSans-32"/>
      </g>
     </g>
    </g>
    <g id="xtick_15">
     <g id="line2d_65">
      <path d="M 877.312765 275.704 
L 877.312765 50.064 
" clip-path="url(#p167195abf1)" style="fill: none; stroke: #b0b0b0; stroke-opacity: 0.25; stroke-width: 0.8; stroke-linecap: square"/>
     </g>
     <g id="line2d_66">
      <g>
       <use xlink:href="#mc9a65fa7d0" x="877.312765" y="275.704" style="stroke: #000000; stroke-width: 0.8"/>
      </g>
     </g>
     <g id="text_38">
      <!-- 3 -->
      <g transform="translate(874.131515 290.302437) scale(0.1 -0.1)">
       <use xlink:href="#DejaVuSans-33"/>
      </g>
     </g>
    </g>
    <g id="xtick_16">
     <g id="line2d_67">
      <path d="M 935.143068 275.704 
L 935.143068 50.064 
" clip-path="url(#p167195abf1)" style="fill: none; stroke: #b0b0b0; stroke-opacity: 0.25; stroke-width: 0.8; stroke-linecap: square"/>
     </g>
     <g id="line2d_68">
      <g>
       <use xlink:href="#mc9a65fa7d0" x="935.143068" y="275.704" style="stroke: #000000; stroke-width: 0.8"/>
      </g>
     </g>
     <g id="text_39">
      <!-- 4 -->
      <g transform="translate(931.961818 290.302437) scale(0.1 -0.1)">
       <use xlink:href="#DejaVuSans-34"/>
      </g>
     </g>
    </g>
    <g id="xtick_17">
     <g id="line2d_69">
      <path d="M 992.973371 275.704 
L 992.973371 50.064 
" clip-path="url(#p167195abf1)" style="fill: none; stroke: #b0b0b0; stroke-opacity: 0.25; stroke-width: 0.8; stroke-linecap: square"/>
     </g>
     <g id="line2d_70">
      <g>
       <use xlink:href="#mc9a65fa7d0" x="992.973371" y="275.704" style="stroke: #000000; stroke-width: 0.8"/>
      </g>
     </g>
     <g id="text_40">
      <!-- 5 -->
      <g transform="translate(989.792121 290.302437) scale(0.1 -0.1)">
       <use xlink:href="#DejaVuSans-35"/>
      </g>
     </g>
    </g>
    <g id="xtick_18">
     <g id="line2d_71">
      <path d="M 1050.803674 275.704 
L 1050.803674 50.064 
" clip-path="url(#p167195abf1)" style="fill: none; stroke: #b0b0b0; stroke-opacity: 0.25; stroke-width: 0.8; stroke-linecap: square"/>
     </g>
     <g id="line2d_72">
      <g>
       <use xlink:href="#mc9a65fa7d0" x="1050.803674" y="275.704" style="stroke: #000000; stroke-width: 0.8"/>
      </g>
     </g>
     <g id="text_41">
      <!-- 6 -->
      <g transform="translate(1047.622424 290.302437) scale(0.1 -0.1)">
       <use xlink:href="#DejaVuSans-36"/>
      </g>
     </g>
    </g>
    <g id="text_42">
     <!-- reasoning depth k -->
     <g transform="translate(860.952135 303.980562) scale(0.1 -0.1)">
      <use xlink:href="#DejaVuSans-72"/>
      <use xlink:href="#DejaVuSans-65" transform="translate(38.863281 0)"/>
      <use xlink:href="#DejaVuSans-61" transform="translate(100.386719 0)"/>
      <use xlink:href="#DejaVuSans-73" transform="translate(161.666016 0)"/>
      <use xlink:href="#DejaVuSans-6f" transform="translate(213.765625 0)"/>
      <use xlink:href="#DejaVuSans-6e" transform="translate(274.947266 0)"/>
      <use xlink:href="#DejaVuSans-69" transform="translate(338.326172 0)"/>
      <use xlink:href="#DejaVuSans-6e" transform="translate(366.109375 0)"/>
      <use xlink:href="#DejaVuSans-67" transform="translate(429.488281 0)"/>
      <use xlink:href="#DejaVuSans-20" transform="translate(492.964844 0)"/>
      <use xlink:href="#DejaVuSans-64" transform="translate(524.751953 0)"/>
      <use xlink:href="#DejaVuSans-65" transform="translate(588.228516 0)"/>
      <use xlink:href="#DejaVuSans-70" transform="translate(649.751953 0)"/>
      <use xlink:href="#DejaVuSans-74" transform="translate(713.228516 0)"/>
      <use xlink:href="#DejaVuSans-68" transform="translate(752.4375 0)"/>
      <use xlink:href="#DejaVuSans-20" transform="translate(815.816406 0)"/>
      <use xlink:href="#DejaVuSans-6b" transform="translate(847.603516 0)"/>
     </g>
    </g>
   </g>
   <g id="matplotlib.axis_6">
    <g id="ytick_13">
     <g id="line2d_73">
      <path d="M 747.194583 275.704 
L 1065.26125 275.704 
" clip-path="url(#p167195abf1)" style="fill: none; stroke: #b0b0b0; stroke-opacity: 0.25; stroke-width: 0.8; stroke-linecap: square"/>
     </g>
     <g id="line2d_74">
      <g>
       <use xlink:href="#m2e1baf4dcd" x="747.194583" y="275.704" style="stroke: #000000; stroke-width: 0.8"/>
      </g>
     </g>
     <g id="text_43">
      <!-- 0.0 -->
      <g transform="translate(724.291458 279.503219) scale(0.1 -0.1)">
       <use xlink:href="#DejaVuSans-30"/>
       <use xlink:href="#DejaVuSans-2e" transform="translate(63.623047 0)"/>
       <use xlink:href="#DejaVuSans-30" transform="translate(95.410156 0)"/>
      </g>
     </g>
    </g>
    <g id="ytick_14">
     <g id="line2d_75">
      <path d="M 747.194583 232.724952 
L 1065.26125 232.724952 
" clip-path="url(#p167195abf1)" style="fill: none; stroke: #b0b0b0; stroke-opacity: 0.25; stroke-width: 0.8; stroke-linecap: square"/>
     </g>
     <g id="line2d_76">
      <g>
       <use xlink:href="#m2e1baf4dcd" x="747.194583" y="232.724952" style="stroke: #000000; stroke-width: 0.8"/>
      </g>
     </g>
     <g id="text_44">
      <!-- 0.2 -->
      <g transform="translate(724.291458 236.524171) scale(0.1 -0.1)">
       <use xlink:href="#DejaVuSans-30"/>
       <use xlink:href="#DejaVuSans-2e" transform="translate(63.623047 0)"/>
       <use xlink:href="#DejaVuSans-32" transform="translate(95.410156 0)"/>
      </g>
     </g>
    </g>
    <g id="ytick_15">
     <g id="line2d_77">
      <path d="M 747.194583 189.745905 
L 1065.26125 189.745905 
" clip-path="url(#p167195abf1)" style="fill: none; stroke: #b0b0b0; stroke-opacity: 0.25; stroke-width: 0.8; stroke-linecap: square"/>
     </g>
     <g id="line2d_78">
      <g>
       <use xlink:href="#m2e1baf4dcd" x="747.194583" y="189.745905" style="stroke: #000000; stroke-width: 0.8"/>
      </g>
     </g>
     <g id="text_45">
      <!-- 0.4 -->
      <g transform="translate(724.291458 193.545124) scale(0.1 -0.1)">
       <use xlink:href="#DejaVuSans-30"/>
       <use xlink:href="#DejaVuSans-2e" transform="translate(63.623047 0)"/>
       <use xlink:href="#DejaVuSans-34" transform="translate(95.410156 0)"/>
      </g>
     </g>
    </g>
    <g id="ytick_16">
     <g id="line2d_79">
      <path d="M 747.194583 146.766857 
L 1065.26125 146.766857 
" clip-path="url(#p167195abf1)" style="fill: none; stroke: #b0b0b0; stroke-opacity: 0.25; stroke-width: 0.8; stroke-linecap: square"/>
     </g>
     <g id="line2d_80">
      <g>
       <use xlink:href="#m2e1baf4dcd" x="747.194583" y="146.766857" style="stroke: #000000; stroke-width: 0.8"/>
      </g>
     </g>
     <g id="text_46">
      <!-- 0.6 -->
      <g transform="translate(724.291458 150.566076) scale(0.1 -0.1)">
       <use xlink:href="#DejaVuSans-30"/>
       <use xlink:href="#DejaVuSans-2e" transform="translate(63.623047 0)"/>
       <use xlink:href="#DejaVuSans-36" transform="translate(95.410156 0)"/>
      </g>
     </g>
    </g>
    <g id="ytick_17">
     <g id="line2d_81">
      <path d="M 747.194583 103.78781 
L 1065.26125 103.78781 
" clip-path="url(#p167195abf1)" style="fill: none; stroke: #b0b0b0; stroke-opacity: 0.25; stroke-width: 0.8; stroke-linecap: square"/>
     </g>
     <g id="line2d_82">
      <g>
       <use xlink:href="#m2e1baf4dcd" x="747.194583" y="103.78781" style="stroke: #000000; stroke-width: 0.8"/>
      </g>
     </g>
     <g id="text_47">
      <!-- 0.8 -->
      <g transform="translate(724.291458 107.587028) scale(0.1 -0.1)">
       <use xlink:href="#DejaVuSans-30"/>
       <use xlink:href="#DejaVuSans-2e" transform="translate(63.623047 0)"/>
       <use xlink:href="#DejaVuSans-38" transform="translate(95.410156 0)"/>
      </g>
     </g>
    </g>
    <g id="ytick_18">
     <g id="line2d_83">
      <path d="M 747.194583 60.808762 
L 1065.26125 60.808762 
" clip-path="url(#p167195abf1)" style="fill: none; stroke: #b0b0b0; stroke-opacity: 0.25; stroke-width: 0.8; stroke-linecap: square"/>
     </g>
     <g id="line2d_84">
      <g>
       <use xlink:href="#m2e1baf4dcd" x="747.194583" y="60.808762" style="stroke: #000000; stroke-width: 0.8"/>
      </g>
     </g>
     <g id="text_48">
      <!-- 1.0 -->
      <g transform="translate(724.291458 64.607981) scale(0.1 -0.1)">
       <use xlink:href="#DejaVuSans-31"/>
       <use xlink:href="#DejaVuSans-2e" transform="translate(63.623047 0)"/>
       <use xlink:href="#DejaVuSans-30" transform="translate(95.410156 0)"/>
      </g>
     </g>
    </g>
   </g>
   <g id="line2d_85">
    <path d="M 761.652159 226.278095 
L 819.482462 239.888127 
L 877.312765 226.994413 
L 935.143068 232.724952 
L 992.973371 235.590222 
L 1050.803674 226.994413 
" clip-path="url(#p167195abf1)" style="fill: none; stroke: #6b7280; stroke-width: 2; stroke-linecap: square"/>
    <g clip-path="url(#p167195abf1)">
     <use xlink:href="#m0c8d27162a" x="761.652159" y="226.278095" style="fill: #6b7280; stroke: #6b7280"/>
     <use xlink:href="#m0c8d27162a" x="819.482462" y="239.888127" style="fill: #6b7280; stroke: #6b7280"/>
     <use xlink:href="#m0c8d27162a" x="877.312765" y="226.994413" style="fill: #6b7280; stroke: #6b7280"/>
     <use xlink:href="#m0c8d27162a" x="935.143068" y="232.724952" style="fill: #6b7280; stroke: #6b7280"/>
     <use xlink:href="#m0c8d27162a" x="992.973371" y="235.590222" style="fill: #6b7280; stroke: #6b7280"/>
     <use xlink:href="#m0c8d27162a" x="1050.803674" y="226.994413" style="fill: #6b7280; stroke: #6b7280"/>
    </g>
   </g>
   <g id="line2d_86">
    <path d="M 761.652159 256.363429 
L 819.482462 255.647111 
L 877.312765 249.916571 
L 935.143068 249.916571 
L 992.973371 254.214476 
L 1050.803674 252.781841 
" clip-path="url(#p167195abf1)" style="fill: none; stroke: #d97706; stroke-width: 2; stroke-linecap: square"/>
    <g clip-path="url(#p167195abf1)">
     <use xlink:href="#m5e7f001ee8" x="761.652159" y="256.363429" style="fill: #d97706; stroke: #d97706"/>
     <use xlink:href="#m5e7f001ee8" x="819.482462" y="255.647111" style="fill: #d97706; stroke: #d97706"/>
     <use xlink:href="#m5e7f001ee8" x="877.312765" y="249.916571" style="fill: #d97706; stroke: #d97706"/>
     <use xlink:href="#m5e7f001ee8" x="935.143068" y="249.916571" style="fill: #d97706; stroke: #d97706"/>
     <use xlink:href="#m5e7f001ee8" x="992.973371" y="254.214476" style="fill: #d97706; stroke: #d97706"/>
     <use xlink:href="#m5e7f001ee8" x="1050.803674" y="252.781841" style="fill: #d97706; stroke: #d97706"/>
    </g>
   </g>
   <g id="line2d_87">
    <path d="M 747.194583 273.555048 
L 1065.26125 273.555048 
" clip-path="url(#p167195abf1)" style="fill: none; stroke-dasharray: 3.7,1.6; stroke-dashoffset: 0; stroke: #9ca3af"/>
   </g>
   <g id="patch_15">
    <path d="M 747.194583 275.704 
L 747.194583 50.064 
" style="fill: none; stroke: #000000; stroke-width: 0.8; stroke-linejoin: miter; stroke-linecap: square"/>
   </g>
   <g id="patch_16">
    <path d="M 1065.26125 275.704 
L 1065.26125 50.064 
" style="fill: none; stroke: #000000; stroke-width: 0.8; stroke-linejoin: miter; stroke-linecap: square"/>
   </g>
   <g id="patch_17">
    <path d="M 747.194583 275.704 
L 1065.26125 275.704 
" style="fill: none; stroke: #000000; stroke-width: 0.8; stroke-linejoin: miter; stroke-linecap: square"/>
   </g>
   <g id="patch_18">
    <path d="M 747.194583 50.064 
L 1065.26125 50.064 
" style="fill: none; stroke: #000000; stroke-width: 0.8; stroke-linejoin: miter; stroke-linecap: square"/>
   </g>
   <g id="text_49">
    <!-- Both digits correct -->
    <g transform="translate(855.634792 44.064) scale(0.11 -0.11)">
     <defs>
      <path id="DejaVuSans-42" d="M 1259 2228 
L 1259 519 
L 2272 519 
Q 2781 519 3026 730 
Q 3272 941 3272 1375 
Q 3272 1813 3026 2020 
Q 2781 2228 2272 2228 
L 1259 2228 
z
M 1259 4147 
L 1259 2741 
L 2194 2741 
Q 2656 2741 2882 2914 
Q 3109 3088 3109 3444 
Q 3109 3797 2882 3972 
Q 2656 4147 2194 4147 
L 1259 4147 
z
M 628 4666 
L 2241 4666 
Q 2963 4666 3353 4366 
Q 3744 4066 3744 3513 
Q 3744 3084 3544 2831 
Q 3344 2578 2956 2516 
Q 3422 2416 3680 2098 
Q 3938 1781 3938 1306 
Q 3938 681 3513 340 
Q 3088 0 2303 0 
L 628 0 
L 628 4666 
z
" transform="scale(0.015625)"/>
     </defs>
     <use xlink:href="#DejaVuSans-42"/>
     <use xlink:href="#DejaVuSans-6f" transform="translate(68.603516 0)"/>
     <use xlink:href="#DejaVuSans-74" transform="translate(129.785156 0)"/>
     <use xlink:href="#DejaVuSans-68" transform="translate(168.994141 0)"/>
     <use xlink:href="#DejaVuSans-20" transform="translate(232.373047 0)"/>
     <use xlink:href="#DejaVuSans-64" transform="translate(264.160156 0)"/>
     <use xlink:href="#DejaVuSans-69" transform="translate(327.636719 0)"/>
     <use xlink:href="#DejaVuSans-67" transform="translate(355.419922 0)"/>
     <use xlink:href="#DejaVuSans-69" transform="translate(418.896484 0)"/>
     <use xlink:href="#DejaVuSans-74" transform="translate(446.679688 0)"/>
     <use xlink:href="#DejaVuSans-73" transform="translate(485.888672 0)"/>
     <use xlink:href="#DejaVuSans-20" transform="translate(537.988281 0)"/>
     <use xlink:href="#DejaVuSans-63" transform="translate(569.775391 0)"/>
     <use xlink:href="#DejaVuSans-6f" transform="translate(624.755859 0)"/>
     <use xlink:href="#DejaVuSans-72" transform="translate(685.9375 0)"/>
     <use xlink:href="#DejaVuSans-72" transform="translate(725.300781 0)"/>
     <use xlink:href="#DejaVuSans-65" transform="translate(764.164062 0)"/>
     <use xlink:href="#DejaVuSans-63" transform="translate(825.6875 0)"/>
     <use xlink:href="#DejaVuSans-74" transform="translate(880.667969 0)"/>
    </g>
   </g>
   <g id="legend_3">
    <g id="patch_19">
     <path d="M 942.38875 96.894937 
L 1058.96125 96.894937 
Q 1060.76125 96.894937 1060.76125 95.094937 
L 1060.76125 56.364 
Q 1060.76125 54.564 1058.96125 54.564 
L 942.38875 54.564 
Q 940.58875 54.564 940.58875 56.364 
L 940.58875 95.094937 
Q 940.58875 96.894937 942.38875 96.894937 
z
" style="fill: #ffffff; opacity: 0.8; stroke: #cccccc; stroke-linejoin: miter"/>
    </g>
    <g id="line2d_88">
     <path d="M 944.18875 61.852594 
L 953.18875 61.852594 
L 962.18875 61.852594 
" style="fill: none; stroke: #6b7280; stroke-width: 2; stroke-linecap: square"/>
     <g>
      <use xlink:href="#m0c8d27162a" x="953.18875" y="61.852594" style="fill: #6b7280; stroke: #6b7280"/>
     </g>
    </g>
    <g id="text_50">
     <!-- Vanilla -->
     <g transform="translate(969.38875 65.002594) scale(0.09 -0.09)">
      <use xlink:href="#DejaVuSans-56"/>
      <use xlink:href="#DejaVuSans-61" transform="translate(60.658203 0)"/>
      <use xlink:href="#DejaVuSans-6e" transform="translate(121.9375 0)"/>
      <use xlink:href="#DejaVuSans-69" transform="translate(185.316406 0)"/>
      <use xlink:href="#DejaVuSans-6c" transform="translate(213.099609 0)"/>
      <use xlink:href="#DejaVuSans-6c" transform="translate(240.882812 0)"/>
      <use xlink:href="#DejaVuSans-61" transform="translate(268.666016 0)"/>
     </g>
    </g>
    <g id="line2d_89">
     <path d="M 944.18875 75.062906 
L 953.18875 75.062906 
L 962.18875 75.062906 
" style="fill: none; stroke: #d97706; stroke-width: 2; stroke-linecap: square"/>
     <g>
      <use xlink:href="#m5e7f001ee8" x="953.18875" y="75.062906" style="fill: #d97706; stroke: #d97706"/>
     </g>
    </g>
    <g id="text_51">
     <!-- Complete Attention -->
     <g transform="translate(969.38875 78.212906) scale(0.09 -0.09)">
      <use xlink:href="#DejaVuSans-43"/>
      <use xlink:href="#DejaVuSans-6f" transform="translate(69.824219 0)"/>
      <use xlink:href="#DejaVuSans-6d" transform="translate(131.005859 0)"/>
      <use xlink:href="#DejaVuSans-70" transform="translate(228.417969 0)"/>
      <use xlink:href="#DejaVuSans-6c" transform="translate(291.894531 0)"/>
      <use xlink:href="#DejaVuSans-65" transform="translate(319.677734 0)"/>
      <use xlink:href="#DejaVuSans-74" transform="translate(381.201172 0)"/>
      <use xlink:href="#DejaVuSans-65" transform="translate(420.410156 0)"/>
      <use xlink:href="#DejaVuSans-20" transform="translate(481.933594 0)"/>
      <use xlink:href="#DejaVuSans-41" transform="translate(513.720703 0)"/>
      <use xlink:href="#DejaVuSans-74" transform="translate(580.378906 0)"/>
      <use xlink:href="#DejaVuSans-74" transform="translate(619.587891 0)"/>
      <use xlink:href="#DejaVuSans-65" transform="translate(658.796875 0)"/>
      <use xlink:href="#DejaVuSans-6e" transform="translate(720.320312 0)"/>
      <use xlink:href="#DejaVuSans-74" transform="translate(783.699219 0)"/>
      <use xlink:href="#DejaVuSans-69" transform="translate(822.908203 0)"/>
      <use xlink:href="#DejaVuSans-6f" transform="translate(850.691406 0)"/>
      <use xlink:href="#DejaVuSans-6e" transform="translate(911.873047 0)"/>
     </g>
    </g>
    <g id="line2d_90">
     <path d="M 944.18875 88.273219 
L 953.18875 88.273219 
L 962.18875 88.273219 
" style="fill: none; stroke-dasharray: 3.7,1.6; stroke-dashoffset: 0; stroke: #9ca3af"/>
    </g>
    <g id="text_52">
     <!-- chance 1% -->
     <g transform="translate(969.38875 91.423219) scale(0.09 -0.09)">
      <use xlink:href="#DejaVuSans-63"/>
      <use xlink:href="#DejaVuSans-68" transform="translate(54.980469 0)"/>
      <use xlink:href="#DejaVuSans-61" transform="translate(118.359375 0)"/>
      <use xlink:href="#DejaVuSans-6e" transform="translate(179.638672 0)"/>
      <use xlink:href="#DejaVuSans-63" transform="translate(243.017578 0)"/>
      <use xlink:href="#DejaVuSans-65" transform="translate(297.998047 0)"/>
      <use xlink:href="#DejaVuSans-20" transform="translate(359.521484 0)"/>
      <use xlink:href="#DejaVuSans-31" transform="translate(391.308594 0)"/>
      <use xlink:href="#DejaVuSans-25" transform="translate(454.931641 0)"/>
     </g>
    </g>
   </g>
  </g>
  <g id="text_53">
   <!-- Single-forward-pass composition depth — 29M backbone, 12k steps, no CoT allowed -->
   <g transform="translate(282.267812 16.318125) scale(0.12 -0.12)">
    <defs>
     <path id="DejaVuSans-53" d="M 3425 4513 
L 3425 3897 
Q 3066 4069 2747 4153 
Q 2428 4238 2131 4238 
Q 1616 4238 1336 4038 
Q 1056 3838 1056 3469 
Q 1056 3159 1242 3001 
Q 1428 2844 1947 2747 
L 2328 2669 
Q 3034 2534 3370 2195 
Q 3706 1856 3706 1288 
Q 3706 609 3251 259 
Q 2797 -91 1919 -91 
Q 1588 -91 1214 -16 
Q 841 59 441 206 
L 441 856 
Q 825 641 1194 531 
Q 1563 422 1919 422 
Q 2459 422 2753 634 
Q 3047 847 3047 1241 
Q 3047 1584 2836 1778 
Q 2625 1972 2144 2069 
L 1759 2144 
Q 1053 2284 737 2584 
Q 422 2884 422 3419 
Q 422 4038 858 4394 
Q 1294 4750 2059 4750 
Q 2388 4750 2728 4690 
Q 3069 4631 3425 4513 
z
" transform="scale(0.015625)"/>
     <path id="DejaVuSans-2d" d="M 313 2009 
L 1997 2009 
L 1997 1497 
L 313 1497 
L 313 2009 
z
" transform="scale(0.015625)"/>
     <path id="DejaVuSans-66" d="M 2375 4863 
L 2375 4384 
L 1825 4384 
Q 1516 4384 1395 4259 
Q 1275 4134 1275 3809 
L 1275 3500 
L 2222 3500 
L 2222 3053 
L 1275 3053 
L 1275 0 
L 697 0 
L 697 3053 
L 147 3053 
L 147 3500 
L 697 3500 
L 697 3744 
Q 697 4328 969 4595 
Q 1241 4863 1831 4863 
L 2375 4863 
z
" transform="scale(0.015625)"/>
     <path id="DejaVuSans-2014" d="M 313 1978 
L 6088 1978 
L 6088 1528 
L 313 1528 
L 313 1978 
z
" transform="scale(0.015625)"/>
     <path id="DejaVuSans-39" d="M 703 97 
L 703 672 
Q 941 559 1184 500 
Q 1428 441 1663 441 
Q 2288 441 2617 861 
Q 2947 1281 2994 2138 
Q 2813 1869 2534 1725 
Q 2256 1581 1919 1581 
Q 1219 1581 811 2004 
Q 403 2428 403 3163 
Q 403 3881 828 4315 
Q 1253 4750 1959 4750 
Q 2769 4750 3195 4129 
Q 3622 3509 3622 2328 
Q 3622 1225 3098 567 
Q 2575 -91 1691 -91 
Q 1453 -91 1209 -44 
Q 966 3 703 97 
z
M 1959 2075 
Q 2384 2075 2632 2365 
Q 2881 2656 2881 3163 
Q 2881 3666 2632 3958 
Q 2384 4250 1959 4250 
Q 1534 4250 1286 3958 
Q 1038 3666 1038 3163 
Q 1038 2656 1286 2365 
Q 1534 2075 1959 2075 
z
" transform="scale(0.015625)"/>
     <path id="DejaVuSans-4d" d="M 628 4666 
L 1569 4666 
L 2759 1491 
L 3956 4666 
L 4897 4666 
L 4897 0 
L 4281 0 
L 4281 4097 
L 3078 897 
L 2444 897 
L 1241 4097 
L 1241 0 
L 628 0 
L 628 4666 
z
" transform="scale(0.015625)"/>
     <path id="DejaVuSans-62" d="M 3116 1747 
Q 3116 2381 2855 2742 
Q 2594 3103 2138 3103 
Q 1681 3103 1420 2742 
Q 1159 2381 1159 1747 
Q 1159 1113 1420 752 
Q 1681 391 2138 391 
Q 2594 391 2855 752 
Q 3116 1113 3116 1747 
z
M 1159 2969 
Q 1341 3281 1617 3432 
Q 1894 3584 2278 3584 
Q 2916 3584 3314 3078 
Q 3713 2572 3713 1747 
Q 3713 922 3314 415 
Q 2916 -91 2278 -91 
Q 1894 -91 1617 61 
Q 1341 213 1159 525 
L 1159 0 
L 581 0 
L 581 4863 
L 1159 4863 
L 1159 2969 
z
" transform="scale(0.015625)"/>
    </defs>
    <use xlink:href="#DejaVuSans-53"/>
    <use xlink:href="#DejaVuSans-69" transform="translate(63.476562 0)"/>
    <use xlink:href="#DejaVuSans-6e" transform="translate(91.259766 0)"/>
    <use xlink:href="#DejaVuSans-67" transform="translate(154.638672 0)"/>
    <use xlink:href="#DejaVuSans-6c" transform="translate(218.115234 0)"/>
    <use xlink:href="#DejaVuSans-65" transform="translate(245.898438 0)"/>
    <use xlink:href="#DejaVuSans-2d" transform="translate(307.421875 0)"/>
    <use xlink:href="#DejaVuSans-66" transform="translate(343.505859 0)"/>
    <use xlink:href="#DejaVuSans-6f" transform="translate(378.710938 0)"/>
    <use xlink:href="#DejaVuSans-72" transform="translate(439.892578 0)"/>
    <use xlink:href="#DejaVuSans-77" transform="translate(481.005859 0)"/>
    <use xlink:href="#DejaVuSans-61" transform="translate(562.792969 0)"/>
    <use xlink:href="#DejaVuSans-72" transform="translate(624.072266 0)"/>
    <use xlink:href="#DejaVuSans-64" transform="translate(663.435547 0)"/>
    <use xlink:href="#DejaVuSans-2d" transform="translate(726.912109 0)"/>
    <use xlink:href="#DejaVuSans-70" transform="translate(762.996094 0)"/>
    <use xlink:href="#DejaVuSans-61" transform="translate(826.472656 0)"/>
    <use xlink:href="#DejaVuSans-73" transform="translate(887.751953 0)"/>
    <use xlink:href="#DejaVuSans-73" transform="translate(939.851562 0)"/>
    <use xlink:href="#DejaVuSans-20" transform="translate(991.951172 0)"/>
    <use xlink:href="#DejaVuSans-63" transform="translate(1023.738281 0)"/>
    <use xlink:href="#DejaVuSans-6f" transform="translate(1078.71875 0)"/>
    <use xlink:href="#DejaVuSans-6d" transform="translate(1139.900391 0)"/>
    <use xlink:href="#DejaVuSans-70" transform="translate(1237.3125 0)"/>
    <use xlink:href="#DejaVuSans-6f" transform="translate(1300.789062 0)"/>
    <use xlink:href="#DejaVuSans-73" transform="translate(1361.970703 0)"/>
    <use xlink:href="#DejaVuSans-69" transform="translate(1414.070312 0)"/>
    <use xlink:href="#DejaVuSans-74" transform="translate(1441.853516 0)"/>
    <use xlink:href="#DejaVuSans-69" transform="translate(1481.0625 0)"/>
    <use xlink:href="#DejaVuSans-6f" transform="translate(1508.845703 0)"/>
    <use xlink:href="#DejaVuSans-6e" transform="translate(1570.027344 0)"/>
    <use xlink:href="#DejaVuSans-20" transform="translate(1633.40625 0)"/>
    <use xlink:href="#DejaVuSans-64" transform="translate(1665.193359 0)"/>
    <use xlink:href="#DejaVuSans-65" transform="translate(1728.669922 0)"/>
    <use xlink:href="#DejaVuSans-70" transform="translate(1790.193359 0)"/>
    <use xlink:href="#DejaVuSans-74" transform="translate(1853.669922 0)"/>
    <use xlink:href="#DejaVuSans-68" transform="translate(1892.878906 0)"/>
    <use xlink:href="#DejaVuSans-20" transform="translate(1956.257812 0)"/>
    <use xlink:href="#DejaVuSans-2014" transform="translate(1988.044922 0)"/>
    <use xlink:href="#DejaVuSans-20" transform="translate(2088.044922 0)"/>
    <use xlink:href="#DejaVuSans-32" transform="translate(2119.832031 0)"/>
    <use xlink:href="#DejaVuSans-39" transform="translate(2183.455078 0)"/>
    <use xlink:href="#DejaVuSans-4d" transform="translate(2247.078125 0)"/>
    <use xlink:href="#DejaVuSans-20" transform="translate(2333.357422 0)"/>
    <use xlink:href="#DejaVuSans-62" transform="translate(2365.144531 0)"/>
    <use xlink:href="#DejaVuSans-61" transform="translate(2428.621094 0)"/>
    <use xlink:href="#DejaVuSans-63" transform="translate(2489.900391 0)"/>
    <use xlink:href="#DejaVuSans-6b" transform="translate(2544.880859 0)"/>
    <use xlink:href="#DejaVuSans-62" transform="translate(2602.791016 0)"/>
    <use xlink:href="#DejaVuSans-6f" transform="translate(2666.267578 0)"/>
    <use xlink:href="#DejaVuSans-6e" transform="translate(2727.449219 0)"/>
    <use xlink:href="#DejaVuSans-65" transform="translate(2790.828125 0)"/>
    <use xlink:href="#DejaVuSans-2c" transform="translate(2852.351562 0)"/>
    <use xlink:href="#DejaVuSans-20" transform="translate(2884.138672 0)"/>
    <use xlink:href="#DejaVuSans-31" transform="translate(2915.925781 0)"/>
    <use xlink:href="#DejaVuSans-32" transform="translate(2979.548828 0)"/>
    <use xlink:href="#DejaVuSans-6b" transform="translate(3043.171875 0)"/>
    <use xlink:href="#DejaVuSans-20" transform="translate(3101.082031 0)"/>
    <use xlink:href="#DejaVuSans-73" transform="translate(3132.869141 0)"/>
    <use xlink:href="#DejaVuSans-74" transform="translate(3184.96875 0)"/>
    <use xlink:href="#DejaVuSans-65" transform="translate(3224.177734 0)"/>
    <use xlink:href="#DejaVuSans-70" transform="translate(3285.701172 0)"/>
    <use xlink:href="#DejaVuSans-73" transform="translate(3349.177734 0)"/>
    <use xlink:href="#DejaVuSans-2c" transform="translate(3401.277344 0)"/>
    <use xlink:href="#DejaVuSans-20" transform="translate(3433.064453 0)"/>
    <use xlink:href="#DejaVuSans-6e" transform="translate(3464.851562 0)"/>
    <use xlink:href="#DejaVuSans-6f" transform="translate(3528.230469 0)"/>
    <use xlink:href="#DejaVuSans-20" transform="translate(3589.412109 0)"/>
    <use xlink:href="#DejaVuSans-43" transform="translate(3621.199219 0)"/>
    <use xlink:href="#DejaVuSans-6f" transform="translate(3691.023438 0)"/>
    <use xlink:href="#DejaVuSans-54" transform="translate(3752.205078 0)"/>
    <use xlink:href="#DejaVuSans-20" transform="translate(3813.289062 0)"/>
    <use xlink:href="#DejaVuSans-61" transform="translate(3845.076172 0)"/>
    <use xlink:href="#DejaVuSans-6c" transform="translate(3906.355469 0)"/>
    <use xlink:href="#DejaVuSans-6c" transform="translate(3934.138672 0)"/>
    <use xlink:href="#DejaVuSans-6f" transform="translate(3961.921875 0)"/>
    <use xlink:href="#DejaVuSans-77" transform="translate(4023.103516 0)"/>
    <use xlink:href="#DejaVuSans-65" transform="translate(4104.890625 0)"/>
    <use xlink:href="#DejaVuSans-64" transform="translate(4166.414062 0)"/>
   </g>
  </g>
 </g>
 <defs>
  <clipPath id="pe073d2bcc5">
   <rect x="43.78125" y="50.064" width="318.066667" height="225.64"/>
  </clipPath>
  <clipPath id="pdc67fcd33b">
   <rect x="395.487917" y="50.064" width="318.066667" height="225.64"/>
  </clipPath>
  <clipPath id="p167195abf1">
   <rect x="747.194583" y="50.064" width="318.066667" height="225.64"/>
  </clipPath>
 </defs>
</svg>
